<?xml version="1.0" encoding="UTF-8" standalone="no"?>
<svg
   xmlns:dc="http://purl.org/dc/elements/1.1/"
   xmlns:cc="http://creativecommons.org/ns#"
   xmlns:rdf="http://www.w3.org/1999/02/22-rdf-syntax-ns#"
   xmlns:svg="http://www.w3.org/2000/svg"
   xmlns="http://www.w3.org/2000/svg"
   xmlns:sodipodi="http://sodipodi.sourceforge.net/DTD/sodipodi-0.dtd"
   xmlns:inkscape="http://www.inkscape.org/namespaces/inkscape"
   version="1.1"
   id="svg2"
   xml:space="preserve"
   width="2666.6667"
   height="2666.6667"
   viewBox="0 0 2666.6667 2666.6667"
   sodipodi:docname="4432.eps"><metadata
     id="metadata8"><rdf:RDF><cc:Work
         rdf:about=""><dc:format>image/svg+xml</dc:format><dc:type
           rdf:resource="http://purl.org/dc/dcmitype/StillImage" /></cc:Work></rdf:RDF></metadata><defs
     id="defs6" /><sodipodi:namedview
     pagecolor="#ffffff"
     bordercolor="#666666"
     borderopacity="1"
     objecttolerance="10"
     gridtolerance="10"
     guidetolerance="10"
     inkscape:pageopacity="0"
     inkscape:pageshadow="2"
     inkscape:window-width="640"
     inkscape:window-height="480"
     id="namedview4" /><g
     id="g10"
     inkscape:groupmode="layer"
     inkscape:label="ink_ext_XXXXXX"
     transform="matrix(1.3333333,0,0,-1.3333333,0,2666.6667)"><g
       id="g12"
       transform="scale(0.1)"><path
         d="M 20000,0 H 0 V 20000 H 20000 V 0"
         style="fill:#133550;fill-opacity:1;fill-rule:nonzero;stroke:none"
         id="path14" /><path
         d="m 2235.43,1605.6 c 0,0 -2192.0394,2017.3 -646.41,4334.3 1545.63,2317 3719.09,2962.8 4408.46,3515.5 689.36,552.7 4059.62,6846.5 7062.42,7245.7 2463.6,327.4 3831.9,-448.7 4141,-3138.1 309.2,-2689.4 -2169.3,-4580.3 303.1,-6210.6 1545.6,-1019.1 2419.8,-3802.4 -285.9,-5754.5 l -14982.67,7.7"
         style="fill:#d7e9f4;fill-opacity:1;fill-rule:nonzero;stroke:none"
         id="path16" /><path
         d="m 15792.4,9684.2 986.1,2946.8 -782.3,-2888.9 z"
         style="fill:#0e2549;fill-opacity:1;fill-rule:nonzero;stroke:none"
         id="path18" /><path
         d="m 15255,3520.6 -2361.2,735.3 1654.9,5315 2361.2,-735.3 -1654.9,-5315"
         style="fill:#2e6b99;fill-opacity:1;fill-rule:nonzero;stroke:none"
         id="path20" /><path
         d="m 15969.2,9128.6 -479.7,149.3 269.9,867 479.7,-149.4 -269.9,-866.9"
         style="fill:#2e6b99;fill-opacity:1;fill-rule:nonzero;stroke:none"
         id="path22" /><path
         d="m 16033.1,7992.6 c -2.8,0 -5.7,0.5 -8.5,1.3 l -1225.8,382.3 c -14.9,4.6 -23.3,20.5 -18.6,35.5 4.7,14.9 20.5,23.2 35.5,18.6 L 16041.5,8048 c 14.9,-4.6 23.3,-20.5 18.6,-35.5 -3.8,-12.1 -15,-19.9 -27,-19.9"
         style="fill:#0e2549;fill-opacity:1;fill-rule:nonzero;stroke:none"
         id="path24" /><path
         d="m 15823.2,7321.4 c -2.8,0 -5.6,0.4 -8.5,1.3 l -1225.8,382.2 c -14.9,4.7 -23.2,20.6 -18.6,35.5 4.7,14.9 20.6,23.3 35.5,18.6 l 1225.8,-382.2 c 15,-4.7 23.3,-20.6 18.6,-35.5 -3.7,-12.1 -14.9,-19.9 -27,-19.9"
         style="fill:#0e2549;fill-opacity:1;fill-rule:nonzero;stroke:none"
         id="path26" /><path
         d="m 15854.6,8416.6 c -2.7,0 -5.6,0.4 -8.4,1.3 l -658.9,205.5 c -14.9,4.6 -23.2,20.5 -18.6,35.5 4.7,14.9 20.5,23.2 35.5,18.6 l 658.9,-205.5 c 14.9,-4.6 23.2,-20.5 18.6,-35.5 -3.8,-12.1 -15,-19.9 -27.1,-19.9"
         style="fill:#0e2549;fill-opacity:1;fill-rule:nonzero;stroke:none"
         id="path28" /><path
         d="m 15645.3,7745.2 c -2.8,0 -5.6,0.4 -8.4,1.3 L 14978,7952 c -15,4.6 -23.3,20.5 -18.6,35.4 4.6,15 20.5,23.3 35.4,18.7 l 658.9,-205.5 c 15,-4.7 23.3,-20.5 18.6,-35.5 -3.7,-12.1 -14.9,-19.9 -27,-19.9"
         style="fill:#0e2549;fill-opacity:1;fill-rule:nonzero;stroke:none"
         id="path30" /><path
         d="m 15614.1,6649.9 c -2.8,0 -5.6,0.4 -8.4,1.3 l -1225.9,382.2 c -14.9,4.7 -23.2,20.6 -18.6,35.5 4.7,14.9 20.6,23.3 35.5,18.6 l 1225.8,-382.2 c 15,-4.7 23.3,-20.6 18.6,-35.5 -3.7,-12.1 -14.9,-19.9 -27,-19.9"
         style="fill:#0e2549;fill-opacity:1;fill-rule:nonzero;stroke:none"
         id="path32" /><path
         d="m 15404.2,5978.6 c -2.8,0 -5.6,0.5 -8.4,1.3 L 14170,6362.2 c -15,4.6 -23.3,20.5 -18.7,35.4 4.7,15 20.6,23.3 35.5,18.7 L 15412.7,6034 c 14.9,-4.6 23.2,-20.5 18.6,-35.5 -3.8,-12.1 -15,-19.9 -27.1,-19.9"
         style="fill:#0e2549;fill-opacity:1;fill-rule:nonzero;stroke:none"
         id="path34" /><path
         d="m 15435.7,7073.9 c -2.8,0 -5.7,0.4 -8.5,1.3 l -658.8,205.4 c -15,4.7 -23.3,20.6 -18.7,35.5 4.7,14.9 20.6,23.3 35.5,18.6 l 658.9,-205.4 c 14.9,-4.7 23.3,-20.6 18.6,-35.5 -3.8,-12.1 -15,-19.9 -27,-19.9"
         style="fill:#0e2549;fill-opacity:1;fill-rule:nonzero;stroke:none"
         id="path36" /><path
         d="m 15226.3,6402.5 c -2.8,0 -5.6,0.4 -8.4,1.3 l -658.9,205.4 c -14.9,4.7 -23.3,20.5 -18.6,35.5 4.6,14.9 20.5,23.3 35.5,18.6 l 658.8,-205.4 c 15,-4.7 23.3,-20.6 18.7,-35.5 -3.8,-12.2 -15,-19.9 -27.1,-19.9"
         style="fill:#0e2549;fill-opacity:1;fill-rule:nonzero;stroke:none"
         id="path38" /><path
         d="m 15195.1,5307.1 c -2.8,0 -5.6,0.5 -8.4,1.3 l -1225.8,382.3 c -15,4.6 -23.3,20.5 -18.6,35.4 4.6,15 20.5,23.3 35.4,18.7 l 1225.9,-382.3 c 14.9,-4.6 23.2,-20.5 18.6,-35.4 -3.8,-12.2 -15,-20 -27.1,-20"
         style="fill:#0e2549;fill-opacity:1;fill-rule:nonzero;stroke:none"
         id="path40" /><path
         d="m 14985.3,4635.9 c -2.8,0 -5.7,0.4 -8.5,1.3 L 13751,5019.4 c -15,4.7 -23.3,20.6 -18.6,35.5 4.6,14.9 20.5,23.3 35.5,18.6 l 1225.8,-382.2 c 14.9,-4.7 23.3,-20.6 18.6,-35.5 -3.8,-12.1 -15,-19.9 -27,-19.9"
         style="fill:#0e2549;fill-opacity:1;fill-rule:nonzero;stroke:none"
         id="path42" /><path
         d="m 15016.7,5731.1 c -2.8,0 -5.6,0.4 -8.4,1.3 l -658.9,205.5 c -14.9,4.6 -23.3,20.5 -18.6,35.4 4.6,15 20.5,23.3 35.5,18.7 l 658.8,-205.5 c 15,-4.6 23.3,-20.5 18.6,-35.5 -3.7,-12.1 -14.9,-19.9 -27,-19.9"
         style="fill:#0e2549;fill-opacity:1;fill-rule:nonzero;stroke:none"
         id="path44" /><path
         d="m 14807.3,5059.7 c -2.7,0 -5.6,0.4 -8.4,1.3 l -658.9,205.4 c -14.9,4.7 -23.2,20.6 -18.6,35.5 4.7,15 20.6,23.3 35.5,18.6 l 658.9,-205.4 c 14.9,-4.7 23.2,-20.5 18.6,-35.5 -3.8,-12.1 -15,-19.9 -27.1,-19.9"
         style="fill:#0e2549;fill-opacity:1;fill-rule:nonzero;stroke:none"
         id="path46" /><path
         d="m 12831.1,15562.8 c 0,279.2 217.2,495.8 404.1,495.8 14.6,0 26.4,-4.7 35.9,-14.4 43.3,-44 41.2,-185.7 38.8,-349.7 -0.6,-42.3 -1.3,-86.1 -1.3,-131.7 v -2.3 c 0,-137.2 0,-266.9 -8.8,-358.1 -11.3,-117.8 -34.4,-135.3 -47.1,-135.3 -191,0 -421.6,221.1 -421.6,495.7 z m 2585.2,-69.5 c -0.1,0 -0.1,0 -0.1,0 l -225.6,-1.7 -1.2,-13.7 c -43.2,-525.1 -490.3,-936.6 -1018,-936.6 -364.1,0 -702.2,195.6 -884.6,510.9 27.4,28 37.3,90.8 42.8,147.3 8.9,92.7 8.9,223 8.9,361 v 2.3 c 0,45.4 0.7,89 1.3,131.3 2.7,184.7 4.7,318.2 -47.4,371.1 -2.2,2.2 -4.5,4.2 -6.8,6.1 182,316.6 520.8,513 885.8,513 516.5,0 952.4,-386.1 1014.1,-898 l 1.6,-13 229,-3.4 c 0,0 0.1,0 0.2,0 8.1,0 14.8,6.5 14.9,14.7 0.2,8.3 -6.4,15.1 -14.7,15.2 l -202.9,3 c -69.3,520.5 -515,911.4 -1042.2,911.4 -376,0 -725.1,-202.6 -912.4,-529 -7.4,2.2 -15.4,3.3 -23.8,3.3 -103.9,0 -211.9,-56.5 -296.6,-154.8 -88.6,-103 -137.4,-234.7 -137.4,-370.9 0,-135.3 52,-267.1 146.4,-371.2 87.9,-96.7 201.9,-154.4 305.1,-154.4 2.7,0 5.3,0.3 7.8,0.7 187.6,-324.9 535.8,-526.5 910.9,-526.5 265.6,0 519.1,99.4 714,279.7 190.4,176.2 308.2,413.9 332.6,670.8 l 198.4,1.5 c 8.2,0 14.9,6.8 14.8,15 0,8.3 -6.7,14.9 -14.9,14.9"
         style="fill:#0e2549;fill-opacity:1;fill-rule:nonzero;stroke:none"
         id="path48" /><path
         d="m 15624.1,12815.9 c -77.2,-68.7 -513.3,-83.8 -596.4,-0.7 -31.7,31.7 -59.7,230 -76.4,405.2 15.7,-5.5 31.8,-11.8 48.4,-19.3 2.1,-1 4.4,-1.4 6.6,-1.4 6.1,0 12,3.5 14.7,9.5 3.6,8.1 0,17.6 -8.1,21.3 -22.4,10.1 -44,18.3 -64.8,25.1 -2.7,30.1 -5,59.1 -6.9,86 h 805 c -14.8,-143.2 -60.5,-471 -122.1,-525.7 z m -1039.2,-0.7 c -83.2,-83.1 -519.2,-68 -596.5,0.7 -61.5,54.7 -107.2,382.5 -122.1,525.7 h 805 c -1.7,-25.1 -3.8,-52 -6.3,-80 -42.8,-14.1 -67.1,-30.9 -69.6,-32.7 -7.3,-5.1 -9,-15.2 -3.8,-22.5 5.1,-7.2 15.2,-8.9 22.5,-3.7 0.5,0.3 17.2,11.8 47.7,23.2 -16.6,-176.5 -44.9,-378.7 -76.9,-410.7 z m 321.9,558.6 1.1,-17.1 c 0.8,-12 3.1,-45.9 7,-91.5 -89.3,23.1 -162.8,18.2 -216.7,5.7 3.6,42.7 5.7,74.3 6.5,85.8 l 1.1,17.1 h -875 l 1.7,-17.6 c 4.7,-49.8 49.2,-488.5 134.5,-564.4 46.5,-41.3 192.4,-65.2 335,-65.2 131.4,0 260.1,20.3 305.6,65.8 45,45 73.7,290.6 87.6,444.1 52.4,13.7 128.5,20.8 222.7,-5.6 14,-153.7 42.6,-394.1 87,-438.5 45.6,-45.5 174.2,-65.8 305.6,-65.8 142.6,0 288.6,23.9 335,65.2 85.4,75.9 129.8,514.6 134.6,564.4 l 1.7,17.6 h -875"
         style="fill:#0e2549;fill-opacity:1;fill-rule:nonzero;stroke:none"
         id="path50" /><path
         d="m 14803.6,11821.7 c -697.3,0 -1264.5,567.2 -1264.5,1264.5 0,346.9 140.5,661.7 367.5,890.4 22.9,-4 46,-7.4 69.2,-10.4 0.7,-0.1 1.3,-0.1 1.9,-0.1 7.5,0 13.9,5.5 14.9,13.1 1,8.2 -4.8,15.6 -13,16.7 -15.6,1.9 -31,4.2 -46.4,6.7 226.8,215.6 533.4,348.1 870.4,348.1 697.2,0 1264.5,-567.3 1264.5,-1264.5 0,-697.3 -567.3,-1264.5 -1264.5,-1264.5 z m -2179.8,3714.4 c 0,856.1 696.5,1552.6 1552.6,1552.6 856.1,0 1552.5,-696.5 1552.5,-1552.6 0,-484.5 -204.1,-912.7 -574.7,-1206 -111.5,31.5 -229.1,48.4 -350.6,48.4 -351.8,0 -671.2,-141.4 -904.4,-370.2 -732.6,131.9 -1275.4,774.7 -1275.4,1527.8 z m 2565.1,-1216.3 c 367.7,298.6 569.9,729.6 569.9,1216.3 0,872.6 -709.9,1582.5 -1582.4,1582.5 -872.6,0 -1582.5,-709.9 -1582.5,-1582.5 0,-760.6 543.3,-1411 1279.8,-1553.5 -224.3,-232.5 -362.4,-548.6 -362.4,-896.4 0,-712.6 579.7,-1292.3 1292.3,-1292.3 712.6,0 1292.3,579.7 1292.3,1292.3 0,578.4 -382,1069.3 -907,1233.6"
         style="fill:#0e2549;fill-opacity:1;fill-rule:nonzero;stroke:none"
         id="path52" /><path
         d="m 2966.96,8783.7 -42.14,-954.3 1407.68,-4607.2 729.2,200.2 -1407.68,4607.2 -573.6,785.2 c -44.61,61.1 -110.19,43.1 -113.46,-31.1"
         style="fill:#c8e1f9;fill-opacity:1;fill-rule:nonzero;stroke:none"
         id="path54" /><path
         d="M 2940.38,7831.4 4342.89,3241 5042.27,3433.1 3640,8022.6 3067.94,8805.7 c -17.05,23.4 -38.68,34.6 -56.39,29.2 -17.05,-5.2 -27.95,-24.6 -29.15,-51.9 z m 1381.73,-4628.1 -1412.84,4624.2 42.25,956.9 15.44,-0.7 -15.44,0.7 c 1.81,41 20.91,71 51.09,80.1 30.66,9.3 65.27,-6.3 90.3,-40.5 l 575.13,-787.3 0.76,-2.5 1412.33,-4622.5 -759.02,-208.4"
         style="fill:#0e2549;fill-opacity:1;fill-rule:nonzero;stroke:none"
         id="path56" /><path
         d="m 3074.72,8509.6 -25.68,-581.6 539.59,-1725.7 420.58,114.3 -515.77,1733.4 -349.57,478.6 c -27.19,37.2 -67.16,26.2 -69.15,-19"
         style="fill:#2e6b99;fill-opacity:1;fill-rule:nonzero;stroke:none"
         id="path58" /><path
         d="m 4793.8,4931.4 -1082.49,-297.2 -98.88,323.7 1082.5,297.2 98.87,-323.7"
         style="fill:#e2474b;fill-opacity:1;fill-rule:nonzero;stroke:none"
         id="path60" /><path
         d="m 5168.81,3138.4 -707.92,-1012.3 -707.92,2748.4 867,238.1 548.84,-1974.2"
         style="fill:#e2474b;fill-opacity:1;fill-rule:nonzero;stroke:none"
         id="path62" /><path
         d="m 2532.98,8034.2 v 0 0 z m -2.29,-3.8 -207.7,-341 c -43.42,-71.3 -44.93,-157.3 -4.04,-230.1 40.88,-72.8 115.13,-116.2 198.61,-116.2 h 26.26 c 83.47,0 157.73,43.4 198.62,116.2 40.89,72.8 39.37,158.8 -4.05,230.1 z m 13.13,-718.2 h -26.26 c -94.8,0 -179.13,49.3 -225.56,132 -46.44,82.6 -44.72,180.3 4.6,261.3 l 209.99,344.8 c 5.16,8.4 14.17,13.5 24.1,13.5 v 0 c 9.94,0 18.94,-5.1 24.1,-13.5 l 210,-344.8 c 49.31,-81 51.03,-178.7 4.59,-261.3 -46.43,-82.7 -130.76,-132 -225.56,-132"
         style="fill:#0e2549;fill-opacity:1;fill-rule:nonzero;stroke:none"
         id="path64" /><path
         d="m 2737.93,6952.6 h -0.01 0.01 z m -2.06,-3.4 -186.35,-306 c -38.96,-63.9 -40.32,-141.1 -3.63,-206.4 36.69,-65.3 103.3,-104.3 178.21,-104.3 h 23.55 c 74.9,0 141.52,39 178.21,104.3 36.68,65.3 35.33,142.5 -3.63,206.4 z m 11.78,-644.4 h -23.55 c -85.07,0 -160.72,44.3 -202.39,118.4 -41.66,74.2 -40.12,161.8 4.13,234.5 l 188.41,309.3 c 4.64,7.6 12.72,12.2 21.63,12.2 8.91,0 16.99,-4.6 21.62,-12.2 l 188.41,-309.3 c 44.25,-72.7 45.79,-160.3 4.12,-234.5 -41.66,-74.1 -117.32,-118.4 -202.38,-118.4"
         style="fill:#0e2549;fill-opacity:1;fill-rule:nonzero;stroke:none"
         id="path66" /><path
         d="M 13634.6,1609.9 H 4827.52 v 12352 h 8807.08 v -12352"
         style="fill:#ffffff;fill-opacity:1;fill-rule:nonzero;stroke:none"
         id="path68" /><path
         d="M 4844.64,1627 H 13617.5 V 13944.8 H 4844.64 Z m 8807.06,-34.2 H 4810.4 V 13979 h 8841.3 V 1592.8"
         style="fill:#0e2549;fill-opacity:1;fill-rule:nonzero;stroke:none"
         id="path70" /><path
         d="M 14030.2,13421.9 H 4431.89 v 1043.7 h 9598.31 v -1043.7"
         style="fill:#2e6b99;fill-opacity:1;fill-rule:nonzero;stroke:none"
         id="path72" /><path
         d="M 14030.2,1594.5 H 4431.89 V 2638.2 H 14030.2 V 1594.5"
         style="fill:#2e6b99;fill-opacity:1;fill-rule:nonzero;stroke:none"
         id="path74" /><path
         d="m 7268.76,10049.8 c 0,-297 183.54,-577.3 529.99,-577.3 373.27,0 530,272.9 530,579.1 0,300.6 -177.36,564.4 -525.87,564.4 -371.21,0 -534.12,-274.8 -534.12,-566.2 z m 1179.59,3.6 c 0,-352.2 -210.34,-673.1 -655.79,-673.1 -406.25,0 -643.41,293.2 -643.41,663.9 0,365.2 228.91,664 657.85,664 395.95,0 641.35,-278.5 641.35,-654.8"
         style="fill:#0e2549;fill-opacity:1;fill-rule:nonzero;stroke:none"
         id="path76" /><path
         d="m 11222,10033.2 h -736.3 v -542.3 h 806.4 l -16.5,-92.2 h -901.2 v 1291 h 884.7 v -92.2 h -773.4 v -472.1 h 736.3 v -92.2"
         style="fill:#0e2549;fill-opacity:1;fill-rule:nonzero;stroke:none"
         id="path78" /><path
         d="m 6225.28,8922.8 h 98.29 v -496.5 h 764.49 v 496.5 h 98.29 V 7783.2 h -98.29 v 561.7 h -764.49 v -561.7 h -98.29 v 1139.6"
         style="fill:#0e2549;fill-opacity:1;fill-rule:nonzero;stroke:none"
         id="path80" /><path
         d="m 8962.93,8922.8 h 98.3 V 7864.6 h 684.4 l -18.2,-81.4 h -764.5 v 1139.6"
         style="fill:#0e2549;fill-opacity:1;fill-rule:nonzero;stroke:none"
         id="path82" /><path
         d="m 12008.2,8258.6 c -142,338.6 -214.8,501.4 -240.3,577.9 h -1.8 c -31,-86.3 -112.9,-288.1 -227.5,-577.9 z m -504.2,-81.4 -162,-394 h -100.1 l 467.8,1139.6 h 116.5 L 12314,7783.2 h -107.4 l -165.7,394 H 11504"
         style="fill:#0e2549;fill-opacity:1;fill-rule:nonzero;stroke:none"
         id="path84" /><path
         d="m 6148.76,6195.4 v 944.8 h 120.75 c 164.5,-226.8 550.87,-754.5 617.28,-857 h 1.51 c -9.06,136.3 -7.55,275.3 -7.55,429.2 v 427.8 h 83.01 v -944.8 h -111.68 c -156.97,218.7 -549.37,768 -624.83,871.9 h -1.51 c 7.54,-124.2 6.03,-261.8 6.03,-433.2 v -438.7 h -83.01"
         style="fill:#0e2549;fill-opacity:1;fill-rule:nonzero;stroke:none"
         id="path86" /><path
         d="m 8260.13,7072.7 h -354.67 v 67.5 h 793.86 v -67.5 h -356.18 v -877.3 h -83.01 v 877.3"
         style="fill:#0e2549;fill-opacity:1;fill-rule:nonzero;stroke:none"
         id="path88" /><path
         d="m 10437.9,6447.8 c -49.8,-149.8 -173.5,-263.2 -396.9,-263.2 -303.38,0 -463.36,216 -463.36,481.9 0,255 156.96,487.2 464.86,487.2 227.9,0 362.2,-113.4 396.9,-271.3 h -81.5 c -48.3,122.8 -137.3,203.8 -319.9,203.8 -262.64,0 -372.82,-214.6 -372.82,-418.4 0,-202.4 108.66,-415.7 378.82,-415.7 172,0 259.6,79.7 312.4,195.7 h 81.5"
         style="fill:#0e2549;fill-opacity:1;fill-rule:nonzero;stroke:none"
         id="path90" /><path
         d="m 11459.6,6671.9 c 0,-217.3 134.3,-422.5 387.9,-422.5 273.1,0 387.8,199.8 387.8,423.8 0,220 -129.8,413 -384.8,413 -271.7,0 -390.9,-201.1 -390.9,-414.3 z m 863.3,2.7 c 0,-257.8 -154,-492.7 -480,-492.7 -297.3,0 -470.8,214.6 -470.8,485.9 0,267.2 167.5,485.9 481.4,485.9 289.8,0 469.4,-203.8 469.4,-479.1"
         style="fill:#0e2549;fill-opacity:1;fill-rule:nonzero;stroke:none"
         id="path92" /><path
         d="m 9537.86,11686 c -205.79,490.8 -311.32,726.7 -348.26,837.6 h -2.63 c -44.85,-125 -163.57,-417.6 -329.78,-837.6 z m -730.8,-117.9 -234.8,-571 h -145.11 l 678.03,1651.6 h 168.85 l 707.05,-1651.6 h -155.66 l -240.08,571 h -778.28"
         style="fill:#0e2549;fill-opacity:1;fill-rule:nonzero;stroke:none"
         id="path94" /><path
         d="m 6154.95,5603.8 h 64.92 v -355.1 h 504.87 v 355.1 h 64.91 v -815 h -64.91 v 401.7 h -504.87 v -401.7 h -64.92 v 815"
         style="fill:#0e2549;fill-opacity:1;fill-rule:nonzero;stroke:none"
         id="path96" /><path
         d="m 7650.37,5603.8 h 64.92 V 4847 h 451.98 l -12.02,-58.2 h -504.88 v 815"
         style="fill:#0e2549;fill-opacity:1;fill-rule:nonzero;stroke:none"
         id="path98" /><path
         d="m 9348.93,5128.8 c -93.76,242.1 -141.85,358.6 -158.68,413.3 h -1.2 c -20.43,-61.7 -74.53,-206.1 -150.26,-413.3 z m -332.98,-58.2 -106.99,-281.8 h -66.11 l 308.94,815 h 76.93 l 322.16,-815 h -70.92 l -109.39,281.8 h -354.62"
         style="fill:#0e2549;fill-opacity:1;fill-rule:nonzero;stroke:none"
         id="path100" /><path
         d="m 10344.3,5199.8 c 0,-187.4 107,-364.4 308.9,-364.4 217.6,0 308.9,172.3 308.9,365.6 0,189.7 -103.3,356.2 -306.5,356.2 -216.4,0 -311.3,-173.5 -311.3,-357.4 z m 687.6,2.3 c 0,-222.3 -122.7,-424.9 -382.3,-424.9 -236.8,0 -375.1,185.1 -375.1,419.1 0,230.5 133.5,419.1 383.5,419.1 230.8,0 373.9,-175.8 373.9,-413.3"
         style="fill:#0e2549;fill-opacity:1;fill-rule:nonzero;stroke:none"
         id="path102" /><path
         d="m 12014,5545.6 h -282.5 v 58.2 h 632.3 v -58.2 h -283.7 v -756.8 h -66.1 v 756.8"
         style="fill:#0e2549;fill-opacity:1;fill-rule:nonzero;stroke:none"
         id="path104" /><path
         d="m 16660.1,1597.9 h -1666 c -305.5,0 -553.2,247.7 -553.2,553.2 v 2262.1 c 0,305.5 247.7,553.2 553.2,553.2 h 1666 c 305.5,0 553.2,-247.7 553.2,-553.2 V 2151.1 c 0,-305.5 -247.7,-553.2 -553.2,-553.2"
         style="fill:#c8e1f9;fill-opacity:1;fill-rule:nonzero;stroke:none"
         id="path106" /><path
         d="m 16710.9,4966.4 h -1767.6 v 502.3 h 1767.6 v -502.3"
         style="fill:#c8e1f9;fill-opacity:1;fill-rule:nonzero;stroke:none"
         id="path108" /><path
         d="m 15576.6,6662 -514.1,-1193.3 h 1484.7 l -514,1193.3 c -86.3,200.3 -370.3,200.3 -456.6,0"
         style="fill:#ffffff;fill-opacity:1;fill-rule:nonzero;stroke:none"
         id="path110" /><path
         d="m 17197.9,2151.1 c 0,-296.5 -241.3,-537.8 -537.8,-537.8 h -1666 c -296.5,0 -537.8,241.3 -537.8,537.8 v 2262.1 c 0,296.5 241.3,537.8 537.8,537.8 h 1666 c 296.5,0 537.8,-241.3 537.8,-537.8 z m -2239.2,3302.2 h 145.6 v -471.4 h -145.6 z m 632.1,1202.6 c 37.4,86.9 119.5,140.9 214.1,140.9 94.6,0 176.6,-54 214.1,-140.9 l 504.7,-1171.7 H 15086 Z m 771,-1202.6 h 163.9 v -471.4 h -163.9 z m -188.7,0 h 161.7 v -471.4 h -161.7 z m -170.6,0 h 143.7 v -471.4 h -143.7 z m -184.1,0 h 157.1 v -471.4 h -157.1 z m -175.2,0 h 148.2 v -471.4 h -148.2 z m -170.6,0 h 143.7 v -471.4 h -143.7 z m -170.7,0 h 143.7 v -471.4 h -143.7 z m -170.7,0 h 143.7 v -471.4 h -143.7 z m 1564.3,0 v -471.4 h -142.9 v 471.4 h 18.1 z m 30.9,-475.4 v 506.3 h -169 l -510.1,1184 c -42.3,98.4 -135.3,159.5 -242.4,159.5 -107.2,0 -200.1,-61.1 -242.5,-159.5 l -510,-1184 h -124.6 v -506.3 c -282.4,-32.9 -502.4,-273.6 -502.4,-564.7 V 2151.1 c 0,-313.6 255.1,-568.7 568.7,-568.7 h 1666 c 313.6,0 568.7,255.1 568.7,568.7 v 2262.1 c 0,291.1 -220,531.8 -502.4,564.7"
         style="fill:#0e2549;fill-opacity:1;fill-rule:nonzero;stroke:none"
         id="path112" /><path
         d="m 17202.6,2268.4 h -1718.8 v 2054.4 h 1718.8 V 2268.4"
         style="fill:#ffffff;fill-opacity:1;fill-rule:nonzero;stroke:none"
         id="path114" /><path
         d="m 15510,2287 h 1687.9 V 4310.5 H 15510 Z m 1718.8,-31 h -1749.7 v 2085.4 h 1749.7 V 2256"
         style="fill:#0e2549;fill-opacity:1;fill-rule:nonzero;stroke:none"
         id="path116" /><path
         d="m 16560.7,3068.4 c 52.4,45.3 85.6,112.1 85.6,186.5 0,74.4 -33.2,141.2 -85.6,186.4 137.4,-53.8 237.5,-160 261.3,-187.2 -24,-29.6 -125.6,-132.8 -261.3,-185.7 z m -578.5,187.1 c 24.3,30.2 122,129.1 252.8,182.5 -50.1,-45.1 -81.7,-110.5 -81.7,-183.1 0,-72.6 31.6,-138 81.7,-183.1 -133,54.7 -229.4,157.1 -252.8,183.7 z m 417.6,-216.2 c -118.9,0 -215.6,96.7 -215.6,215.6 0,118.9 96.7,215.6 215.6,215.6 118.9,0 215.6,-96.7 215.6,-215.6 0,-118.9 -96.7,-215.6 -215.6,-215.6 z m 423.4,259.6 c -47.1,48.1 -216.6,205 -421.1,205 -130.5,0 -245.7,-63.5 -319.5,-116.7 -65.5,-47.4 -134.9,-115.4 -134.9,-132.3 0,-15.9 70.6,-84.7 134.9,-131.4 73.9,-53.7 189.3,-117.7 319.5,-117.7 130.7,0 245.8,63.2 319.3,116.3 65.3,47 134.7,115.1 135.1,132.5 0.1,5.1 0.2,10 -33.3,44.3"
         style="fill:#0e2549;fill-opacity:1;fill-rule:nonzero;stroke:none"
         id="path118" /><path
         d="m 16402.1,3164.5 c -49.8,0 -90.4,40.6 -90.4,90.4 0,47.3 36.6,86.2 82.9,90 -0.3,-2.7 -0.6,-5.4 -0.6,-8.1 0,-31.3 25.4,-56.7 56.7,-56.7 12.7,0 24.5,4.3 34,11.5 5.1,-11.4 7.7,-23.8 7.7,-36.7 0,-49.8 -40.5,-90.4 -90.3,-90.4 z m 48.6,198 c 14.2,0 25.7,-11.5 25.7,-25.7 0,-14.2 -11.5,-25.8 -25.7,-25.8 -14.2,0 -25.8,11.6 -25.8,25.8 0,14.2 11.6,25.7 25.8,25.7 z m 54,-42.9 c 1.7,5.4 2.6,11.2 2.6,17.2 0,31.2 -25.4,56.7 -56.6,56.7 -16.1,0 -30.6,-6.8 -40.9,-17.6 -2.5,0.2 -5.1,0.3 -7.7,0.3 -66.9,0 -121.3,-54.4 -121.3,-121.3 0,-66.9 54.4,-121.3 121.3,-121.3 66.9,0 121.3,54.4 121.3,121.3 0,23.3 -6.5,45.5 -18.7,64.7"
         style="fill:#0e2549;fill-opacity:1;fill-rule:nonzero;stroke:none"
         id="path120" /><path
         d="m 16022.4,2840.7 h -200.6 c -8.5,0 -15.4,6.9 -15.4,15.4 0,8.6 6.9,15.5 15.4,15.5 h 200.6 c 8.6,0 15.5,-6.9 15.5,-15.5 0,-8.5 -6.9,-15.4 -15.5,-15.4"
         style="fill:#0e2549;fill-opacity:1;fill-rule:nonzero;stroke:none"
         id="path122" /><path
         d="m 16938.9,3254.9 c 0,-297.3 -241.8,-539.2 -539.1,-539.2 -95.5,0 -188.9,25.2 -270.9,73 7.1,21.2 11.1,43.9 11.1,67.4 0,117.7 -95.7,213.4 -213.4,213.4 -10.9,0 -21.6,-1.1 -32.1,-2.7 -22.4,60 -33.9,123.2 -33.9,188.1 0,297.3 241.9,539.1 539.2,539.1 69.2,0 136.3,-13 199.7,-38.4 -3.5,-15.3 -5.5,-31.1 -5.5,-47.4 0,-117.7 95.7,-213.4 213.4,-213.4 24.2,0 47.3,4.2 69,11.7 40.8,-77.1 62.5,-163.8 62.5,-251.6 z m -1012.3,-581.2 c -100.6,0 -182.5,81.8 -182.5,182.4 0,100.6 81.9,182.5 182.5,182.5 100.6,0 182.5,-81.9 182.5,-182.5 0,-100.6 -81.9,-182.4 -182.5,-182.4 z m 880.8,1217 c 100.6,0 182.5,-81.9 182.5,-182.5 0,-100.6 -81.9,-182.5 -182.5,-182.5 -100.6,0 -182.5,81.9 -182.5,182.5 0,100.6 81.9,182.5 182.5,182.5 z m 213.4,-182.5 c 0,117.7 -95.8,213.4 -213.4,213.4 -90.5,0 -167.8,-56.7 -198.8,-136.4 -66.4,26.3 -136.5,39.8 -208.8,39.8 -314.3,0 -570.1,-255.8 -570.1,-570.1 0,-67.2 11.6,-132.6 34.3,-194.8 -87.2,-26.8 -150.8,-108.1 -150.8,-204 0,-117.6 95.7,-213.4 213.4,-213.4 83,0 155,47.8 190.2,117.3 85.9,-49.2 183.4,-75.2 283,-75.2 314.3,0 570,255.7 570,570.1 0,92 -22.3,182.9 -64.7,263.8 68.6,35.6 115.7,107.1 115.7,189.5"
         style="fill:#0e2549;fill-opacity:1;fill-rule:nonzero;stroke:none"
         id="path124" /><path
         d="m 16903.2,3723.7 h -80.3 v 84.8 c 0,8.5 -7,15.5 -15.5,15.5 -8.5,0 -15.5,-7 -15.5,-15.5 v -84.8 h -89.3 c -8.5,0 -15.5,-7 -15.5,-15.5 0,-8.5 7,-15.5 15.5,-15.5 h 89.3 v -84.8 c 0,-8.5 7,-15.5 15.5,-15.5 8.5,0 15.5,7 15.5,15.5 v 84.8 h 80.3 c 8.6,0 15.5,7 15.5,15.5 0,8.5 -6.9,15.5 -15.5,15.5"
         style="fill:#0e2549;fill-opacity:1;fill-rule:nonzero;stroke:none"
         id="path126" /><path
         d="m 12799.9,9545.1 c -93.6,-168.6 -420.5,-870.5 -488.8,-924 -68.4,-53.5 -236.4,1202.4 -262.1,1249.1 -33.6,60.8 -87.5,-59.6 -80.5,-4 8.2,65.1 -139.8,-111.8 -139.8,-102.3 0,108.6 50.9,-1618.7 495.2,-1709.8 444.4,-91.1 506.3,1199.2 506.3,1199.2 0,0 84,497.5 -30.3,291.8"
         style="fill:#ffffff;fill-opacity:1;fill-rule:nonzero;stroke:none"
         id="path128" /><path
         d="m 11954.3,9871.9 v 0 z m 845.6,-326.8 h 0.1 z m -955.6,212 c 0.3,-4.7 0.7,-10.7 1.1,-17.8 20.6,-339.4 55.2,-640.1 102.9,-893.6 89.6,-476.2 220.5,-745 378.6,-777.4 59.2,-12.2 112.5,0.9 162.7,40 278.4,216.1 325.7,1136.4 326.1,1145.7 l 0.2,1.7 c 22.9,135.7 38.1,292.6 24.8,322.8 -4.3,-3.7 -13.3,-13.7 -28.1,-40.5 -30.8,-55.3 -86.5,-167.9 -151.1,-298.3 -166.1,-335.5 -296.7,-594.9 -341.5,-630 -6.2,-4.9 -14,-6.1 -21.2,-3.3 -47.2,18.5 -102.7,310.3 -201.9,916.8 -27.2,166.7 -53,324.1 -60.7,340.1 -1.9,3.4 -5.7,9.4 -9.7,10 -8.3,1.2 -22.7,-13.2 -30.6,-20.9 -10.9,-10.8 -20.4,-20.1 -32.5,-14.1 -9.6,4.8 -10.5,15.1 -10,23.4 -21.9,-14.7 -66,-60.5 -84.2,-79.5 -11.5,-11.8 -19.2,-19.8 -24.9,-25.1 z M 12368,8035 c -15.4,0 -31,1.6 -47,4.9 -172.9,35.5 -307.9,304.8 -401.2,800.4 -47.9,254.7 -82.7,556.6 -103.3,897.2 -0.4,5.9 -0.7,11.3 -1,15.8 l -1.1,0.4 -0.2,10.2 c 0,12.6 4.8,19.1 14.2,19.4 0.5,0 0.9,0 1.3,0 5.2,5.2 12.2,12.4 18.6,19.1 72.7,75.5 102.2,100.6 123,90.7 4.3,-2.1 8.9,-6 10.9,-13.6 13.1,12.3 29.5,25.3 48.5,22.5 12.5,-1.9 22.9,-10.2 31,-24.8 8.7,-16 24.4,-108.5 63.8,-349.3 48.1,-293.9 136.4,-834.2 181.1,-891.3 49.3,51.1 210.3,376.4 328.9,616 64.7,130.7 120.6,243.5 151.7,299.5 18.9,34 39.5,64.3 62.9,56 17.4,-6 34.4,-26.3 17.1,-191 -8.3,-78.5 -21.1,-156.4 -22.6,-165.4 -2.4,-49.2 -50.2,-943.5 -337.2,-1166.3 -43.1,-33.6 -89.9,-50.4 -139.4,-50.4"
         style="fill:#0e2549;fill-opacity:1;fill-rule:nonzero;stroke:none"
         id="path130" /><path
         d="m 12371,2277.9 0.6,-303.5 h 420.5 l 35.1,288 -456.2,15.5"
         style="fill:#ffffff;fill-opacity:1;fill-rule:nonzero;stroke:none"
         id="path132" /><path
         d="m 12386,1988.8 h 393.3 l 31.6,259.6 -425.4,14.5 z m 419,-28.9 h -447.9 l -0.6,333 487,-16.6 -38.5,-316.4"
         style="fill:#0e2549;fill-opacity:1;fill-rule:nonzero;stroke:none"
         id="path134" /><path
         d="m 13851.4,5796.6 c 0,-14.5 0,-592.2 0,-592.2 l -517.1,31.6 74.8,536.6 442.3,24"
         style="fill:#8daec4;fill-opacity:1;fill-rule:nonzero;stroke:none"
         id="path136" /><path
         d="m 12348.5,1992.7 c 0,0 -607.9,-192.9 -628.8,-351.9 h 1089.9 v 351.9 h -461.1"
         style="fill:#e2474b;fill-opacity:1;fill-rule:nonzero;stroke:none"
         id="path138" /><path
         d="m 14066.3,2271.3 11.5,-307.1 h 420.6 l 19.9,313.7 -452,-6.6"
         style="fill:#ffffff;fill-opacity:1;fill-rule:nonzero;stroke:none"
         id="path140" /><path
         d="m 14091.8,1978.7 h 393 l 18.1,284.5 -421.5,-6.2 z m 420.2,-29 h -448.1 l -12.6,335.9 482.5,7 -21.8,-342.9"
         style="fill:#0e2549;fill-opacity:1;fill-rule:nonzero;stroke:none"
         id="path142" /><path
         d="m 14054.7,1982.5 c 0,0 -607.8,-192.9 -628.7,-351.9 h 1089.9 v 351.9 h -461.2"
         style="fill:#e2474b;fill-opacity:1;fill-rule:nonzero;stroke:none"
         id="path144" /><path
         d="m 13386.3,1691 v -91.4 h 1158 v 104.5 l -1158,-13.1"
         style="fill:#0e2549;fill-opacity:1;fill-rule:nonzero;stroke:none"
         id="path146" /><path
         d="m 12843.7,1707.2 v -97.4 h -1158.1 v 104.5 l 1158.1,-7.1"
         style="fill:#0e2549;fill-opacity:1;fill-rule:nonzero;stroke:none"
         id="path148" /><path
         d="m 13926.9,2215.4 h 669.3 l 57.1,5365.2 -1929.5,-333.2 -459.2,-5032 h 644.4 l 674.5,3343.3 -77.2,733 420.6,-4076.3"
         style="fill:#0e2549;fill-opacity:1;fill-rule:nonzero;stroke:none"
         id="path150" /><path
         d="m 13508.9,10532 c 0,0 47.3,-497.3 7.5,-552.3 -39.8,-55 -269.4,-156.3 -269.4,-156.3 l 385,-1131.9 822.1,79.4 53.3,841.6 c 0,0 -375.2,305.7 -397.9,368.5 -31.3,86.8 -31.4,551 -31.4,551 h -569.2"
         style="fill:#ffffff;fill-opacity:1;fill-rule:nonzero;stroke:none"
         id="path152" /><path
         d="m 13622,8675.9 -3.7,10.9 -389.3,1144.5 12.2,5.4 c 62.8,27.7 232.7,109 263.5,151.5 26.6,36.8 7.8,352.2 -10.3,542.4 -0.7,8 5.1,15 13.1,15.8 8,0.8 15,-5.1 15.8,-13.1 8,-83.9 45.8,-505.5 4.9,-562.1 -36.9,-51 -211.7,-132.4 -263.2,-155.7 l 377,-1108.5 798.4,77.2 52.1,821.8 c -58.7,48 -374.2,307.8 -396.6,370.1 -31.8,88.2 -32.3,536.8 -32.3,555.9 0,8 6.5,14.5 14.5,14.5 8,0 14.5,-6.5 14.5,-14.5 0,-4.6 0.4,-462.6 30.5,-546.1 15.7,-43.3 243.9,-240.3 393.5,-362.2 l 5.7,-4.7 -54.5,-861.3 -845.8,-81.8"
         style="fill:#0e2549;fill-opacity:1;fill-rule:nonzero;stroke:none"
         id="path154" /><path
         d="M 13121.7,9867.8 C 12873.2,9777.1 12933.3,8450.1 12933.3,8450.1 12892.7,8294 12783,6778.5 12783,6778.5 l 1798.3,-46 162.8,1421.7 c 0,0 128.6,1755.7 -553.8,1858.5 -65.5,9.9 -265.5,-83.6 -479.4,-63 -92.7,9 -140,-101.7 -186.1,60.7 0,0 -349,-122.9 -403.1,-142.6"
         style="fill:#e2474b;fill-opacity:1;fill-rule:nonzero;stroke:none"
         id="path156" /><path
         d="m 14382.1,6694.1 c -2.9,0 -5.7,0.8 -8.3,2.5 l -405.2,280.7 c -6.6,4.6 -8.2,13.6 -3.6,20.2 4.5,6.6 13.5,8.2 20.1,3.7 l 405.2,-280.7 c 6.6,-4.6 8.3,-13.6 3.7,-20.2 -2.8,-4.1 -7.3,-6.2 -11.9,-6.2"
         style="fill:#a1c5e2;fill-opacity:1;fill-rule:nonzero;stroke:none"
         id="path158" /><path
         d="m 13339.9,8294.2 21,1687.1 c -113.9,0 -600.7,-306.3 -600.7,-306.3 -7.7,15.8 -281.5,-556.9 -393.9,-834.1 -13,-32 -218.2,872.3 -214.8,834.1 0,0 -347.4,-105.9 -344.9,-166.5 2.5,-60.7 22.1,-1524.5 417.9,-1711.4 73.4,-34.6 490.9,232.3 512.7,629.2 l -53.8,-978.8 -178.8,-2171.4 648.1,-1.1 187.2,3019.2"
         style="fill:#a1c5e2;fill-opacity:1;fill-rule:nonzero;stroke:none"
         id="path160" /><path
         d="m 14147.8,10045.7 -372.3,-1825.5 c -1.7,-143.8 -15.9,-2984.9 32.6,-2974.2 177.2,39.1 931.7,-57.1 931.7,-57.1 l 11.9,1291.6 471.4,-48.3 c 102.7,688.2 -104.2,2821.7 -194.6,3162.7 -17,64.2 -648.8,450.8 -880.7,450.8"
         style="fill:#a1c5e2;fill-opacity:1;fill-rule:nonzero;stroke:none"
         id="path162" /><path
         d="m 13792.1,11493.9 c -103.5,2.2 -354.9,10.8 -378.3,-171.8 -26.7,-208.3 -25.9,-480.7 -23.1,-624.4 1.1,-56.8 43.6,-104 99.7,-111.2 l 629,-80.7 c 57.7,-7.4 111.7,29.6 125.6,86.2 46.8,190.3 142.4,593.6 127.4,658.2 -51,219.8 -416.5,240.1 -580.3,243.7"
         style="fill:#0e2549;fill-opacity:1;fill-rule:nonzero;stroke:none"
         id="path164" /><path
         d="m 14053.3,10375.9 c 38.5,31 70,168.8 94.3,327.6 0.7,4.6 3.7,8.4 7.8,10.2 44.5,19.3 111,64.3 119.4,143.5 7.3,68.7 -44,60.7 -85.7,43.6 -7.4,-3 -15.2,3.2 -14.3,11.4 21.6,192.5 32.6,362.2 32.6,362.2 l -747.4,95.9 c 0,0 -20.5,-171.4 -38,-364.4 -0.8,-8.7 -28.2,-470.8 -15.5,-514.5 6.8,-23.9 23.2,-45 46.4,-63.5 0,0 42.9,-45.4 314.6,-80.3 l 285.8,28.3"
         style="fill:#ffffff;fill-opacity:1;fill-rule:nonzero;stroke:none"
         id="path166" /><path
         d="m 13767.5,10333.1 c -0.6,0 -1.2,0.1 -1.9,0.2 -256.6,32.9 -313.5,75.4 -322.3,83.7 -26.3,21.1 -43.4,44.7 -50.8,70.3 -13.7,47.4 14.6,515.5 15,519.9 17.3,191 37.9,363.1 38.1,364.8 l 1.7,14.5 775.5,-99.4 -0.9,-13.6 c -0.1,-1.7 -11.1,-168.7 -32,-356.8 36,13.6 63,13.8 80.5,0.7 15.6,-11.7 21.9,-32.5 18.8,-61.7 -9.9,-93.8 -91.9,-139.5 -127.4,-155 -30.1,-196.5 -62.6,-306.5 -99.4,-336.1 -6.3,-5 -15.4,-4 -20.4,2.2 -5,6.3 -4,15.4 2.2,20.4 17.2,13.8 51.6,73.6 89.1,318.5 1.4,9.5 7.6,17.5 16.4,21.3 30.5,13.3 102.3,52.6 110.7,131.8 1.3,12.6 1.2,29 -7.4,35.4 -9.3,7 -30.6,4.6 -58.4,-6.8 -8.2,-3.3 -17.3,-2.2 -24.3,3.2 -7.2,5.4 -10.9,14.1 -9.9,23.3 17.8,158.9 28.5,303.9 31.6,347.9 l -719.4,92.3 c -5.2,-45.4 -21.8,-191 -36.2,-349.5 -1.5,-18.1 -27.4,-469.7 -16,-509.2 5.7,-19.9 19.7,-38.8 41.5,-56.2 l 1.5,-1.4 c 0.1,0 48.7,-42.8 305.9,-75.8 8,-1 13.6,-8.3 12.6,-16.2 -1,-7.3 -7.2,-12.7 -14.4,-12.7"
         style="fill:#0e2549;fill-opacity:1;fill-rule:nonzero;stroke:none"
         id="path168" /><path
         d="m 13864.9,10853.9 c -0.6,0 -1.3,0 -1.9,0 -13.3,1.1 -23.2,12.7 -22.2,26 l 1.2,15.5 c 1,13.4 12.8,23.3 26,22.3 13.3,-1.1 23.2,-12.7 22.2,-26 l -1.2,-15.5 c -1,-12.7 -11.6,-22.3 -24.1,-22.3"
         style="fill:#0e2549;fill-opacity:1;fill-rule:nonzero;stroke:none"
         id="path170" /><path
         d="m 13548.3,10901.3 c -1,0 -2,0.1 -2.9,0.2 -13.3,1.6 -22.7,13.6 -21.2,26.9 l 2.2,18.2 c 1.6,13.2 13.5,22.7 26.8,21.1 13.3,-1.5 22.7,-13.6 21.2,-26.8 l -2.2,-18.2 c -1.4,-12.3 -11.9,-21.4 -23.9,-21.4"
         style="fill:#0e2549;fill-opacity:1;fill-rule:nonzero;stroke:none"
         id="path172" /><path
         d="m 14015.9,10920.1 c -3.1,0 -6.3,1 -8.9,3.1 -87,67.8 -172.6,54.9 -173.5,54.7 -7.9,-1.3 -15.3,4.1 -16.6,12 -1.3,7.9 4.1,15.4 12,16.6 4,0.7 99,15.1 195.9,-60.4 6.3,-5 7.4,-14.1 2.5,-20.4 -2.8,-3.7 -7.1,-5.6 -11.4,-5.6"
         style="fill:#0e2549;fill-opacity:1;fill-rule:nonzero;stroke:none"
         id="path174" /><path
         d="m 13649.4,10699.7 c -1.6,0 -3.2,0.3 -4.8,0.9 -10.9,3.8 -65.2,24.6 -67.1,57.7 -1.3,24.6 2,30.7 42.2,104.5 8.7,15.9 19.1,35.1 31.7,58.4 6,13.6 20.4,52.5 18.6,76.4 0,1 -2.7,6.1 -14,12.8 -32.4,19.5 -106.2,34.2 -152.6,14 -7.4,-3.2 -15.9,0.2 -19.1,7.5 -3.2,7.4 0.2,15.9 7.5,19.1 52.6,22.9 136.8,9.9 179.6,-15.9 17.3,-10.5 26.6,-22.5 27.6,-35.4 2.6,-36.4 -20.3,-88.5 -21.3,-90.7 l -0.5,-1.1 c -12.7,-23.6 -23.3,-42.9 -32,-59 -38.5,-70.6 -39.6,-73 -38.7,-89 0.4,-7.9 23.6,-23.4 47.7,-32 7.6,-2.7 11.5,-10.9 8.8,-18.5 -2.1,-5.9 -7.6,-9.7 -13.6,-9.7"
         style="fill:#0e2549;fill-opacity:1;fill-rule:nonzero;stroke:none"
         id="path176" /><path
         d="m 14419.9,6792.1 c -3.1,0 -6.2,1 -8.8,3 l -480.8,365.2 c -6.4,4.9 -7.6,13.9 -2.8,20.3 4.9,6.4 14,7.6 20.4,2.8 l 480.7,-365.2 c 6.4,-4.9 7.7,-13.9 2.8,-20.3 -2.8,-3.8 -7.2,-5.8 -11.5,-5.8"
         style="fill:#0e2549;fill-opacity:1;fill-rule:nonzero;stroke:none"
         id="path178" /><path
         d="m 12727.5,6878 c -5.3,0 -10.4,2.9 -13,8 -3.6,7.1 -0.7,15.8 6.4,19.5 l 517.3,262.5 c 7.1,3.6 15.8,0.8 19.4,-6.3 3.7,-7.2 0.8,-15.9 -6.3,-19.5 L 12734,6879.6 c -2.1,-1.1 -4.3,-1.6 -6.5,-1.6"
         style="fill:#0e2549;fill-opacity:1;fill-rule:nonzero;stroke:none"
         id="path180" /><path
         d="m 13410,10001.4 -392.4,-337.5 265.3,-147.3 -213.4,-401.4 272,-821.8 c 1,-3 5.5,-2.3 5.6,0.9 l 62.9,1707.1"
         style="fill:#ffffff;fill-opacity:1;fill-rule:nonzero;stroke:none"
         id="path182" /><path
         d="m 13085.2,9113.9 249.8,-754.6 59.3,1609.5 -351.5,-302.4 259.6,-144 z m 247.4,-819.1 v -0.1 z m 11.6,-17.8 c -7.4,0 -14.1,4.7 -16.4,11.9 l -274.1,827.6 209.7,394.3 -271,150.5 433.3,372.8 -64.1,-1740.4 c -0.3,-8.3 -6.5,-15.3 -14.9,-16.5 -0.8,-0.2 -1.7,-0.2 -2.5,-0.2"
         style="fill:#0e2549;fill-opacity:1;fill-rule:nonzero;stroke:none"
         id="path184" /><path
         d="m 14141.8,10049.8 406.7,-454.2 -369.7,-88.1 150.2,-433.3 -530.5,-802.5 c -3.6,-5.4 -11.9,-1.8 -10.5,4.4 l 353.8,1773.7"
         style="fill:#ffffff;fill-opacity:1;fill-rule:nonzero;stroke:none"
         id="path186" /><path
         d="m 14150.3,10018.5 -339.4,-1701.7 502.1,759.5 -153.2,441.5 361.7,86.3 z m -348,-1744.9 -0.1,-0.3 c 0,0.1 0.1,0.2 0.1,0.3 z m -8.5,-19.1 c -2.7,0 -5.4,0.6 -8.1,1.7 -9.1,3.9 -14,13.4 -11.8,23.1 l 359.3,1801.8 442.4,-493.9 -377.9,-90.1 147.4,-424.9 -534.5,-808.5 c -3.9,-5.9 -10.2,-9.2 -16.8,-9.2"
         style="fill:#0e2549;fill-opacity:1;fill-rule:nonzero;stroke:none"
         id="path188" /><path
         d="m 13819.2,5257.4 h 0.1 z m 877.3,-83 c -0.5,0 -1.1,0.1 -1.6,0.1 -694.1,77.8 -847.3,64.8 -877.7,58.9 -11.1,-2.1 -21.8,4 -25.5,14.6 -86,251.1 -21,2915.2 -18.2,3028.5 0.2,8 6.8,14.2 14.9,14.1 8,-0.2 14.3,-6.8 14.1,-14.8 -0.7,-27.5 -66.8,-2734.8 14.9,-3013 42.8,6.2 217.5,14.8 880.7,-59.5 8,-0.9 13.7,-8 12.8,-16 -0.8,-7.4 -7.1,-12.9 -14.4,-12.9"
         style="fill:#0e2549;fill-opacity:1;fill-rule:nonzero;stroke:none"
         id="path190" /><path
         d="m 13061.5,5261.6 h -572.6 l 1.2,15.6 261.2,3493.9 c 0.6,8 7.6,14 15.5,13.4 8,-0.6 14,-7.6 13.4,-15.5 l -260,-3478.4 h 541.3 c 8,0 14.5,-6.5 14.5,-14.5 0,-8 -6.5,-14.5 -14.5,-14.5"
         style="fill:#0e2549;fill-opacity:1;fill-rule:nonzero;stroke:none"
         id="path192" /><path
         d="m 14812.5,5635.5 c 0,0 206.6,245.2 245.7,334.9 23.9,54.9 23.3,332.4 23.3,332.4 l 65.2,1027 -265.8,47.6 c 0,0 -2.5,-972.8 -13.2,-1044.1 -10.7,-71.2 -216.1,-244.8 -214.4,-295.5 1.7,-50.7 205.7,94.7 205.7,94.7 0,0 4.4,-148.2 -10,-195.2 -26.4,-86 -85.8,-294.6 -77.9,-342.6 6,-36.3 114.3,156.8 178.9,318.5 26.2,65.6 18.7,113.9 26.6,156.8 l -164.1,-434.5"
         style="fill:#ffffff;fill-opacity:1;fill-rule:nonzero;stroke:none"
         id="path194" /><path
         d="m 14879,6172.7 1.1,-39.6 c 0.5,-15.5 4.1,-153.1 -10.9,-202 -30.5,-99.8 -60.9,-214.1 -72.6,-281.4 35.5,57.5 91.7,166.2 133.7,271.3 16.4,41.1 18.5,74.2 20.6,106.3 1,16.1 2,31.3 4.8,46.5 2.2,11.5 13.1,19.2 24.7,17 11.5,-2.1 19.1,-13.2 17,-24.7 -2.4,-12.7 -3.3,-26.7 -4.2,-41.6 -2.2,-33.7 -4.7,-71.8 -23.6,-119.2 -10.8,-27.1 -23.2,-56 -36.6,-85.3 46.3,61 90.3,123.3 105.8,158.9 16.1,37 21.7,218.2 21.5,323.8 v 1.4 l 64,1008.2 -222.3,39.8 c -0.5,-156.7 -3.4,-955.7 -13.4,-1021.9 -6.4,-43 -62.4,-105.5 -121.7,-171.7 -30.3,-33.9 -73.5,-82.2 -87.7,-107.7 33.2,11.2 107,55.9 167.5,98.9 z m -102.3,-603.8 c -1.6,0 -3.2,0.2 -4.7,0.3 -8.5,1 -19.3,7.3 -21.8,22.1 -9.8,59.4 63.7,303.8 78.5,352.2 8.4,27.2 10,98.5 9.7,148.8 -99.5,-67.8 -163,-95.6 -189.2,-82.8 -10.4,5.2 -16.6,15.2 -17.1,27.6 -1,31.5 36.6,75.2 103.3,149.7 47.5,53.1 106.8,119.3 111.3,149.7 8.3,55.1 12.1,705 13,1041 v 25.2 l 309.3,-55.3 -66.3,-1045.3 c 0,-32 -0.3,-283.3 -25,-340.2 -38.6,-88.4 -227.4,-314.3 -247.6,-338.3 -30.7,-48.7 -43.7,-54.7 -53.4,-54.7"
         style="fill:#0e2549;fill-opacity:1;fill-rule:nonzero;stroke:none"
         id="path196" /><path
         d="m 15223.1,6418.8 -512.2,50.7 29.8,1198.1 439.8,91.8 42.6,-1340.6"
         style="fill:#a1c5e2;fill-opacity:1;fill-rule:nonzero;stroke:none"
         id="path198" /><path
         d="m 15185,6408.1 c -0.3,0 -0.5,0 -0.8,0 -212.4,11.1 -472.7,46.7 -475.3,47.1 l -11.9,1.6 -96.4,2162.1 c -0.3,8 5.9,14.8 13.9,15.2 7.8,0.4 14.7,-5.9 15.1,-13.9 l 95.3,-2137.9 c 53.4,-7.1 275.6,-35.6 460.8,-45.2 8,-0.4 14.2,-7.2 13.8,-15.2 -0.4,-7.8 -6.8,-13.8 -14.5,-13.8"
         style="fill:#0e2549;fill-opacity:1;fill-rule:nonzero;stroke:none"
         id="path200" /><path
         d="m 14330.2,9962.1 -201.8,157.3 -417.5,-169.7 133.9,-159.7 485.4,172.1"
         style="fill:#e2474b;fill-opacity:1;fill-rule:nonzero;stroke:none"
         id="path202" /><path
         d="m 13249.9,9944.1 140.8,149.2 320.2,-143.6 -120.7,-147.3 -340.3,141.7"
         style="fill:#e2474b;fill-opacity:1;fill-rule:nonzero;stroke:none"
         id="path204" /><path
         d="m 12964.1,2181.9 h -731.7 v 207.8 h 731.7 v -207.8"
         style="fill:#0e2549;fill-opacity:1;fill-rule:nonzero;stroke:none"
         id="path206" /><path
         d="m 14640.5,2215.4 h -731.7 v 207.8 h 731.7 v -207.8"
         style="fill:#0e2549;fill-opacity:1;fill-rule:nonzero;stroke:none"
         id="path208" /><path
         d="m 12944.1,2374.2 c -1,0 -2,0.1 -3,0.3 -8.4,1.7 -13.8,9.9 -12.1,18.2 l 325,1611.1 c -70.1,-16.5 -260.2,-56 -323.7,-15.2 -12.8,8.2 -20.8,19.7 -23.3,33.3 -2.1,12.1 1,24.2 9.2,35 35.5,47.1 174.4,71.8 244.4,81.4 -89.1,69.3 -80.3,91.4 -77.3,99.2 8,20 36.3,16.3 45.5,15 71.1,-9.5 130.5,-48.7 160.4,-72 l 79.3,390.5 c 1.7,8.3 9.9,13.7 18.2,12 8.4,-1.7 13.8,-9.8 12.1,-18.2 l -90.1,-443.5 -20.2,19.4 c -0.7,0.7 -73.5,69.1 -163.7,81.2 -3.7,0.5 -6.6,0.7 -8.9,0.8 11.5,-16.8 50.6,-51.4 93.9,-82.5 l 33.1,-23.7 -40.5,-4.2 c -86.3,-8.9 -233.6,-36.8 -261.5,-74 -3.9,-5.1 -3.9,-8.6 -3.4,-11 0.5,-3.2 2.1,-8 9.5,-12.7 53.1,-34.1 251.3,6.4 323.1,25 l 23.9,6.1 -334.7,-1659.1 c -1.5,-7.3 -8,-12.4 -15.2,-12.4"
         style="fill:#a1c5e2;fill-opacity:1;fill-rule:nonzero;stroke:none"
         id="path210" /><path
         d="m 14607.8,2420.1 v 0 c -8.6,0 -15.5,7 -15.4,15.5 l 7.7,1643.5 c -65.6,-29.8 -244.5,-105.2 -314.6,-77.4 -14.2,5.6 -24.3,15.3 -29.3,28.1 -4.5,11.4 -3.7,24 2.2,36.2 25.7,53 157.2,104 224.1,127.1 -100.8,50.7 -96.5,74.1 -95,82.3 3.9,21.2 32.4,23 41.8,23.6 71.5,4.3 137.4,-22.7 171.2,-39.7 l 2.4,398.4 c 0,8.5 6.9,15.4 15.4,15.4 h 0.1 c 8.5,-0.1 15.4,-7 15.4,-15.6 l -2.7,-452.5 -23.6,15 c -0.9,0.6 -85.6,53.7 -176.3,48.1 -3.7,-0.2 -6.6,-0.6 -8.9,-0.9 14.6,-14.3 59.6,-40.7 108.1,-62.8 l 37,-16.9 -38.9,-11.9 c -82.9,-25.4 -222,-81.3 -242.3,-123.1 -2.8,-5.8 -2.1,-9.2 -1.2,-11.5 1.1,-3 3.6,-7.4 11.8,-10.6 58.7,-23.2 245.3,54.9 312.2,86.9 l 22.3,10.6 -0.1,-24.6 -7.9,-1667.9 c 0,-8.5 -7,-15.3 -15.5,-15.3"
         style="fill:#a1c5e2;fill-opacity:1;fill-rule:nonzero;stroke:none"
         id="path212" /><path
         d="M 11949.6,9838.6 10872,11782 12017.4,9974 Z"
         style="fill:#a1c5e2;fill-opacity:1;fill-rule:nonzero;stroke:none"
         id="path214" /><path
         d="m 12080.1,9925.4 c 73.8,217.8 -155.9,212.1 -155.9,212.1 0,0 45.1,-224.9 70.2,-264.4 25.1,-39.6 75.2,21.2 85.7,52.3"
         style="fill:#ffffff;fill-opacity:1;fill-rule:nonzero;stroke:none"
         id="path216" /><path
         d="m 11942.1,10122.2 c 18.4,-89.3 48.3,-215.8 64.5,-241.4 4.3,-6.7 7.7,-6.3 9.7,-6.1 16.2,2 42.8,33.8 50.1,55.3 v 0 c 20.1,59.5 18.2,106.2 -5.6,138.6 -30.4,41.3 -89.3,51.3 -118.7,53.6 z m 72.9,-276.6 c -13.2,0 -24.8,6.9 -32.9,19.7 -25.8,40.7 -67.4,246 -72.1,269.3 l -3.4,16.9 17.3,0.4 c 4.4,0.2 110.1,2 160.2,-66.1 29.8,-40.5 33.1,-96.1 9.8,-165.1 -8.4,-24.6 -40.3,-70.7 -74.1,-74.8 -1.6,-0.2 -3.2,-0.3 -4.8,-0.3"
         style="fill:#0e2549;fill-opacity:1;fill-rule:nonzero;stroke:none"
         id="path218" /><path
         d="m 11721.3,10106.7 c 0,0 235.7,44.7 264.1,0.2 28.4,-44.6 -187.5,-102.8 -186.9,-108 1.1,-8.3 248.1,82.9 278.2,43 30,-39.9 -216.6,-120.1 -214.5,-124.2 3.1,-6.1 154.9,62.1 202.8,31.8 47.9,-30.2 -161.4,-83.4 -155.3,-90.6 4.1,-4.7 131.6,61.8 153.7,21.7 13.7,-24.9 -132.8,-111 -132.8,-111 0,0 -94.1,-52.7 -155.8,48.9 -16.1,26.6 -140.7,218.6 -53.5,288.2"
         style="fill:#ffffff;fill-opacity:1;fill-rule:nonzero;stroke:none"
         id="path220" /><path
         d="m 11727.7,10093.2 c -43.9,-39.2 -23.9,-132.1 56.7,-262.6 l 2.8,-4.6 c 53.8,-88.6 133,-45.6 136.3,-43.7 62.1,36.5 117.8,78 125.6,93.4 -9.9,9.2 -46.6,1.7 -109.2,-22.4 -25.7,-9.8 -33.4,-12.8 -41.1,-3.8 l -5,5.8 1.8,7.8 c 2.7,10 9.1,12.3 51.1,27.2 26.6,9.4 94.1,33.3 108.9,48 -30.3,15.9 -118.4,-13.1 -156.4,-25.7 -34.3,-11.3 -43.5,-14.3 -50,-1.4 l -2.8,5.8 2.3,6 c 2.8,7.2 3.5,7.5 41.5,22.3 135.7,52.9 170.1,77.4 174.2,88.6 -12.1,12.2 -82.2,0 -208.3,-36.1 -52,-14.9 -57.4,-16.5 -65.3,-11.3 l -5.6,3.6 -1,6.9 c -1.7,12.9 3.8,14.9 39.9,27.5 135.8,47.4 149.7,67.5 149.4,74 -14,22 -137.5,14.9 -245.8,-5.3 z m 145.7,-351.5 c -34.8,0 -77.5,14.1 -111,69.3 l -2.7,4.3 c -116.4,188.6 -90,268.7 -47.4,302.7 l 2.8,2.3 3.5,0.6 c 57.6,11 247.8,42.8 279,-6.3 5.2,-8.1 6.3,-17.2 3.1,-26.3 -3.6,-10.5 -13,-20.5 -27.5,-30.5 62.3,12.8 100.3,12.4 115,-7.2 5.2,-6.9 6.8,-15.3 4.4,-23.6 -5,-17.5 -28.7,-35.4 -67.8,-55.3 19.2,0.6 35.7,-2.2 48,-9.9 13.4,-8.5 14.3,-19.2 13.7,-24.8 -1.3,-11.7 -10.8,-21.9 -29.6,-32.7 8.1,-3.2 14.7,-8.5 19.2,-16.7 5.1,-9.2 20.5,-37.2 -138.2,-130.5 -0.7,-0.3 -28.4,-15.4 -64.5,-15.4"
         style="fill:#0e2549;fill-opacity:1;fill-rule:nonzero;stroke:none"
         id="path222" /><path
         d="m 14255.7,11250.8 c 0,0 -551.8,-151 -797.6,45.9 -245.8,196.8 149.2,199.1 386.4,171.6 237.1,-27.5 569.5,-80.4 411.2,-217.5"
         style="fill:#0e2549;fill-opacity:1;fill-rule:nonzero;stroke:none"
         id="path224" /><path
         d="m 13589,10625.6 c -8.8,-12.3 2.3,-59 44.4,-51.7 108.2,18.5 199,107.5 173.5,98.6 -10,-3.5 -77.7,-27.8 -123.2,-38.4 -61.9,-14.5 -84.7,5.4 -94.7,-8.5"
         style="fill:#0e2549;fill-opacity:1;fill-rule:nonzero;stroke:none"
         id="path226" /><path
         d="m 13592.9,5486.4 c -7.7,0 -14.3,5.7 -15.4,13.4 l -88.2,664.9 -1.1,444.6 c 0,8.6 6.9,15.5 15.4,15.5 h 0.1 c 8.5,0 15.4,-6.9 15.4,-15.4 l 1.1,-443.6 88,-661.9 c 1.1,-8.4 -4.8,-16.2 -13.3,-17.3 -0.7,-0.1 -1.4,-0.2 -2,-0.2"
         style="fill:#a1c5e2;fill-opacity:1;fill-rule:nonzero;stroke:none"
         id="path228" /><path
         d="m 14027.2,8525.6 v -290.2 l 446.3,-0.9 v 291.1 h -446.3"
         style="fill:#ffffff;fill-opacity:1;fill-rule:nonzero;stroke:none"
         id="path230" /><path
         d="m 14459,8249 -417.3,0.9 v 261.3 h 417.3 z m -227.4,332.8 h 45.3 c 25.5,0 47,-17.8 52.6,-41.7 H 14179 c 5.7,23.9 27.1,41.7 52.6,41.7 z m 127.3,-41.7 c -6,39.9 -40.5,70.7 -82,70.7 h -45.3 c -41.5,0 -75.9,-30.8 -82,-70.7 h -136.9 v -319.2 l 475.3,-0.9 v 320.1 h -129.1"
         style="fill:#0e2549;fill-opacity:1;fill-rule:nonzero;stroke:none"
         id="path232" /><path
         d="m 14115.8,8435.4 h 280.3 -280.3"
         style="fill:#e2474b;fill-opacity:1;fill-rule:nonzero;stroke:none"
         id="path234" /><path
         d="m 14396.1,8420.9 h -280.3 c -8,0 -14.4,6.5 -14.4,14.5 0,8 6.4,14.5 14.4,14.5 h 280.3 c 8,0 14.5,-6.5 14.5,-14.5 0,-8 -6.5,-14.5 -14.5,-14.5"
         style="fill:#0e2549;fill-opacity:1;fill-rule:nonzero;stroke:none"
         id="path236" /><path
         d="m 14157.7,8358.1 h 187.7 -187.7"
         style="fill:#e2474b;fill-opacity:1;fill-rule:nonzero;stroke:none"
         id="path238" /><path
         d="m 14345.4,8343.6 h -187.7 c -8,0 -14.5,6.5 -14.5,14.5 0,8 6.5,14.5 14.5,14.5 h 187.7 c 8,0 14.5,-6.5 14.5,-14.5 0,-8 -6.5,-14.5 -14.5,-14.5"
         style="fill:#0e2549;fill-opacity:1;fill-rule:nonzero;stroke:none"
         id="path240" /><path
         d="m 13585.8,9820 -311,129.5 119.3,126.4 293.6,-131.6 z m 540.3,282.8 174.3,-135.9 -451,-159.9 -114.6,136.8 z m -286,-329.8 519.9,184.3 -229.3,178.7 -419.5,-170.5 -324,145.3 -162.3,-172 369.7,-153.9 97.4,118.9 c -31.9,-337.7 -221,-2382.9 -202.8,-3097.5 0.2,-7.9 6.6,-14.1 14.5,-14.1 0.1,0 0.2,0 0.3,0 8,0.2 14.4,6.8 14.2,14.8 -18.5,722.8 176,2812.7 203.9,3106.8 l 118,-140.8"
         style="fill:#0e2549;fill-opacity:1;fill-rule:nonzero;stroke:none"
         id="path242" /><path
         d="m 14349.3,11132.4 c -189.9,-150.5 -984.9,128 -984.9,128 l 38.7,256.1 c 0,0 408.2,-287.5 927.1,-220.4 60.5,7.8 66.9,-125.8 19.1,-163.7"
         style="fill:#2e6b99;fill-opacity:1;fill-rule:nonzero;stroke:none"
         id="path244" /><path
         d="m 13788,11494.6 c 0,-157.7 -127.9,-285.5 -285.6,-285.5 -157.7,0 -285.5,127.8 -285.5,285.5 0,157.8 127.8,285.6 285.5,285.6 157.7,0 285.6,-127.8 285.6,-285.6"
         style="fill:#a1c5e2;fill-opacity:1;fill-rule:nonzero;stroke:none"
         id="path246" /><path
         d="m 10609.9,14779.3 775.3,8.5 -48,-328.2 -810.7,10.2 83.4,309.5"
         style="fill:#ffffff;fill-opacity:1;fill-rule:nonzero;stroke:none"
         id="path248" /><path
         d="m 10550.7,14488.1 770.5,-9.7 42.5,290.5 -739.5,-8.1 z m 802.6,-47.3 -851,10.7 93.3,346.2 811.2,8.9 -53.5,-365.8"
         style="fill:#0e2549;fill-opacity:1;fill-rule:nonzero;stroke:none"
         id="path250" /><path
         d="m 11276.2,14812.8 c 0,0 -19.2,502.9 196.6,486.2 215.7,-16.6 200.1,-28.3 200.1,-28.3 l -121.2,-855.1 -260.3,19.7 c 0,0 117.7,311.5 -15.2,377.5"
         style="fill:#e2474b;fill-opacity:1;fill-rule:nonzero;stroke:none"
         id="path252" /><path
         d="m 11679.3,15286.6 -125.9,-888.4 -49.3,7 125.9,888.4 49.3,-7"
         style="fill:#0e2549;fill-opacity:1;fill-rule:nonzero;stroke:none"
         id="path254" /><path
         d="m 6139.74,15252.9 c 0,0 -203.83,-775.8 0,-823.4 203.82,-47.5 4687.96,0 4687.96,0 l 46.3,452.8 -3603.97,370.6 H 6139.74"
         style="fill:#0e2549;fill-opacity:1;fill-rule:nonzero;stroke:none"
         id="path256" /><path
         d="m 7279.3,15206.5 c 0,0 1445.28,701.8 1751.02,701.8 180.67,0 1408.28,-1035.3 1408.28,-1035.3 l -676.37,-213.1 -799.94,541.8 -965.05,-371.1 -717.94,375.9"
         style="fill:#0e2549;fill-opacity:1;fill-rule:nonzero;stroke:none"
         id="path258" /><path
         d="m 5483.11,14973.8 c 0,0 -166.77,-357.9 -232.78,-378.7 -66.01,-20.9 -512.09,53 -550.67,-148.1 l 614.65,0.7 c 159.82,23.1 411.99,362.8 411.99,362.8 l -243.19,163.3"
         style="fill:#ffffff;fill-opacity:1;fill-rule:nonzero;stroke:none"
         id="path260" /><path
         d="m 5073.16,14573.5 c -136.83,0 -307.99,-11.9 -348.55,-107.9 l 588.31,0.7 c 131.46,20.4 335.54,273.9 386.59,339.7 l -208.79,140.2 c -42.53,-89.5 -170.3,-348.5 -234.79,-368.9 -19.26,-6.1 -58.62,-5.4 -113.11,-4.5 -21.46,0.3 -45,0.7 -69.66,0.7 z m -396.03,-145.2 4.25,22.2 c 31.96,166.6 301.18,162.2 462.05,159.5 45.16,-0.7 87.81,-1.4 101.29,2.8 36.43,11.5 141.23,196.6 221.52,368.8 l 9.18,19.7 277.46,-186.2 -11.63,-15.7 c -10.49,-14.1 -258.7,-346.2 -424.28,-370.1 l -2.64,-0.2 -637.2,-0.8"
         style="fill:#0e2549;fill-opacity:1;fill-rule:nonzero;stroke:none"
         id="path262" /><path
         d="m 7306.99,18382.3 c 0,0 251.55,-51.2 376.53,-305.3 124.98,-254 103.37,-291.4 26.12,-439 -77.26,-147.5 -127.48,-235.3 -23.3,-328.9 104.17,-93.6 95.28,-168.3 104.7,-229.7 9.43,-61.3 -110.38,-180 -97.63,-254.2 46,-267.9 28.57,-391.8 28.57,-391.8 l -1639.12,78.5 c 0,0 -164.85,388 25.86,647.4 51.05,69.4 244.14,153 278.46,246.3 23.44,63.8 -28.62,253.5 31.34,322.3 109.39,125.3 181.02,109 189.49,270.1 4.53,86.4 170.71,549.3 698.98,384.3"
         style="fill:#0e2549;fill-opacity:1;fill-rule:nonzero;stroke:none"
         id="path264" /><path
         d="m 6915.81,17575.4 c 0,0 -65.76,-483.8 -88.59,-505.8 -78.12,-75.4 -514.43,-368.4 -558.9,-372.3 -44.48,-3.9 878.97,-165.7 878.97,-165.7 l 384.38,110.5 -64.15,141.1 c 0,0 -154.65,84.1 -195.76,145 -41.12,61 21.19,554 21.19,554 l -377.14,93.2"
         style="fill:#ffffff;fill-opacity:1;fill-rule:nonzero;stroke:none"
         id="path266" /><path
         d="m 6307.92,16699.6 c 123.96,-26.9 545.91,-102.8 838.64,-154.1 l 366.27,105.3 -55.78,122.7 c -25.31,14 -157.35,89.1 -196.53,147.1 -40.36,59.9 6.73,463.9 17.49,551.3 l -350.81,86.7 c -21.08,-153.9 -67.67,-476.7 -90.56,-498.8 -67.53,-65.1 -407.46,-297.2 -528.72,-360.2 z m 840.11,-181.8 -3.07,0.5 c -2.21,0.4 -222.81,39 -440.52,78.5 -127.9,23.2 -229.8,42.2 -302.87,56.3 -149.01,28.9 -148.98,29.5 -148.35,44.3 0.2,4.5 3.35,12.5 13.92,13.4 41,4.7 471.41,292.7 550.13,368 16.27,26.6 60.77,319.3 85.12,498.4 l 2.03,15 403.49,-99.7 -1.51,-12 c -23.85,-188.7 -51.28,-503.4 -23.41,-544.7 38.82,-57.5 189.49,-139.9 191,-140.7 l 3.99,-2.2 72.53,-159.5 -402.48,-115.6"
         style="fill:#0e2549;fill-opacity:1;fill-rule:nonzero;stroke:none"
         id="path268" /><path
         d="m 6907.86,17495.9 c -49.79,47.5 -135.39,140.8 -124.92,215.2 10.48,74.4 93.27,50.8 116.94,34.6 15.76,-10.9 63.94,362 63.94,362 l 577.63,-70.9 c 0,0 28.32,-333 -28.41,-533.5 -56.96,-201.4 -160.36,-237.7 -310.72,-217.9 -74.47,9.8 -129.67,36.1 -171.45,67.7 l -123.01,142.8"
         style="fill:#ffffff;fill-opacity:1;fill-rule:nonzero;stroke:none"
         id="path270" /><path
         d="m 7269.37,17266.9 c -22.68,0 -45.73,2 -68.81,5 -68.16,9 -128,32.7 -177.86,70.4 -5.98,4.5 -7.15,13 -2.64,19 4.51,6 13.01,7.1 18.98,2.6 46.08,-34.8 101.61,-56.7 165.06,-65.1 141.09,-18.6 239.78,9.8 295.9,208.1 49.68,175.6 32.96,458.8 28.77,517.8 l -553.26,68 c -3.73,-28.2 -12.95,-96.8 -23.31,-165.3 -28.24,-186.5 -36.27,-190.1 -45.56,-194.2 -4.76,-2.1 -10.15,-1.6 -14.43,1.3 -13.54,9.3 -49.47,20.7 -72.88,10.4 -12.87,-5.6 -20.38,-17.3 -22.97,-35.7 -6.96,-49.4 37.09,-123.6 120.85,-203.5 5.42,-5.1 5.63,-13.7 0.46,-19.1 -5.17,-5.5 -13.74,-5.7 -19.16,-0.5 -64.73,61.7 -139.65,151.2 -128.98,226.9 4.9,34.9 23.85,50.1 38.88,56.7 27.6,12.2 63.47,4.9 86.52,-5.8 12.49,42.3 36.89,201.9 55.45,345.6 l 1.72,13.3 601.92,-73.9 0.93,-11 c 1.17,-13.7 27.88,-337.7 -28.86,-538.3 -53.4,-188.8 -150.94,-232.7 -256.72,-232.7"
         style="fill:#0e2549;fill-opacity:1;fill-rule:nonzero;stroke:none"
         id="path272" /><path
         d="m 7609.76,18038.4 c 0,0 -556.11,-64.8 -702.66,-298.7 0,0 -29.88,20.2 -53.51,22.5 -30.46,2.9 -42.87,-5.3 -42.87,-5.3 l 108.05,417.8 690.99,-136.3"
         style="fill:#0e2549;fill-opacity:1;fill-rule:nonzero;stroke:none"
         id="path274" /><path
         d="m 7416.6,17646.7 c -0.35,0 -0.69,0 -1.04,0 -12.46,0.5 -22.11,11.1 -21.55,23.6 l 0.86,19 c 0.55,12.5 11.18,22.1 23.58,21.5 12.46,-0.5 22.11,-11.1 21.55,-23.5 l -0.86,-19.1 c -0.54,-12.1 -10.54,-21.5 -22.54,-21.5"
         style="fill:#0e2549;fill-opacity:1;fill-rule:nonzero;stroke:none"
         id="path276" /><path
         d="m 7160.26,17680.7 c -0.35,0 -0.69,0 -1.04,0 -12.46,0.6 -22.11,11.1 -21.54,23.6 l 0.85,19 c 0.56,12.5 11.23,22.1 23.58,21.6 12.46,-0.6 22.11,-11.1 21.55,-23.6 l -0.86,-19 c -0.54,-12.1 -10.53,-21.6 -22.54,-21.6"
         style="fill:#0e2549;fill-opacity:1;fill-rule:nonzero;stroke:none"
         id="path278" /><path
         d="m 7219.86,17799.1 c -1.86,0 -3.75,0.4 -5.56,1.2 -1.03,0.5 -59.28,25.8 -118.97,3.9 -7.04,-2.6 -14.82,1 -17.4,8 -2.58,7 1.02,14.8 8.04,17.4 70.57,25.9 136.71,-3.3 139.49,-4.6 6.82,-3.1 9.85,-11.1 6.76,-17.9 -2.26,-5 -7.2,-8 -12.36,-8"
         style="fill:#0e2549;fill-opacity:1;fill-rule:nonzero;stroke:none"
         id="path280" /><path
         d="m 7385.87,17489 c 7.01,-12.2 -49.85,-43.2 -88.93,-34.7 -98.21,21.4 -113.32,97.9 -93.61,82.1 7.43,-6 52.13,-39.1 101.49,-46.1 63.31,-9.1 73.08,12.6 81.05,-1.3"
         style="fill:#0e2549;fill-opacity:1;fill-rule:nonzero;stroke:none"
         id="path282" /><path
         d="m 7391.51,17734.9 c -4.39,-69.1 -5.47,-144.7 0.43,-157.2 3.97,-6.4 22.85,-15.9 54.57,-20.8 41.67,-6.5 74.79,-1.3 81.75,4.7 11.71,10.2 32.75,82.8 47.38,150.2 z m 93.08,-211.8 c -15.89,0 -31.35,1.5 -42.81,3.2 -22.53,3.5 -62.41,12.8 -76.36,35.6 -14.14,23.1 -7.25,141.6 -3.63,191.5 l 1.18,16.2 249.74,-31.3 -3.34,-16.3 c -7.61,-37.3 -34.48,-160.8 -60.85,-183.7 -13.39,-11.6 -39.19,-15.2 -63.93,-15.2"
         style="fill:#a1c5e2;fill-opacity:1;fill-rule:nonzero;stroke:none"
         id="path284" /><path
         d="m 7299.53,17558.8 c -3.18,0 -6.49,0.1 -9.94,0.1 -7.48,0.2 -13.43,6.4 -13.29,13.8 0.15,7.5 6.33,13.5 13.81,13.3 26.86,-0.4 55,2.2 64.72,5.9 -1.2,3.1 -3.73,7.9 -6.03,12.3 -9.73,18.4 -26.01,49.3 -36.54,106.2 -9.1,49.1 -8.44,75.3 2.25,90.4 8.61,12.2 21.32,14.2 31.53,15.8 1.57,0.3 3.15,0.5 4.75,0.8 37.54,6.8 112.39,-16.2 120.81,-18.9 7.13,-2.2 11.1,-9.8 8.84,-17 -2.24,-7.1 -9.87,-11.1 -16.99,-8.8 -21.1,6.6 -81.54,22.8 -107.81,18 -1.81,-0.3 -3.61,-0.6 -5.38,-0.9 -8.26,-1.3 -11.8,-2 -13.62,-4.6 -3.16,-4.5 -7.06,-19.5 2.27,-69.8 9.78,-52.9 24.86,-81.5 33.87,-98.6 7.4,-14 12.74,-24.2 8.29,-35.8 -2.15,-5.6 -8.52,-22.2 -81.54,-22.2"
         style="fill:#0e2549;fill-opacity:1;fill-rule:nonzero;stroke:none"
         id="path286" /><path
         d="m 7217.51,17599.7 c -26.31,-20.5 -160.08,1.3 -179.1,23.1 -11.34,12.9 -16.77,88.1 -15.91,156.8 l 238.45,-29.8 c -0.53,-2.6 -1.09,-5.2 -1.63,-7.9 -8.29,-1.4 -16.88,-3.3 -25.98,-6.1 -8.15,-2.5 -12.73,-11.2 -10.22,-19.3 2.51,-8.2 11.17,-12.7 19.32,-10.2 3.3,1 6.44,1.8 9.6,2.6 -12.32,-53.3 -26.35,-101.2 -34.53,-109.2 z m 160.82,116.4 c -1.64,1.5 -31.98,28.5 -86.83,28.7 1.12,5.6 2.13,10.8 3.01,15.3 l 3.11,16.2 -305.18,38.3 -0.49,-17.1 c -1.1,-38.3 -2.67,-165.6 23.22,-195.1 19.86,-22.7 96.49,-41.1 155.99,-41.1 28.28,0 52.7,4.2 65.32,14 17.99,14 36.43,83.8 48.48,138.5 46.18,1.9 71.05,-19.2 72.54,-20.5 2.96,-2.7 6.67,-4 10.38,-4 4.18,0 8.34,1.7 11.39,5 5.77,6.3 5.35,16.1 -0.94,21.8"
         style="fill:#a1c5e2;fill-opacity:1;fill-rule:nonzero;stroke:none"
         id="path288" /><path
         d="m 7687.08,16703.7 c -4.31,11 -65.41,386.6 -67.79,417 -32.63,71.8 -142.37,248.2 -135.68,279.9 8.23,39.1 147.3,-124 147.3,-124 0,0 21.35,122.2 16.58,160.7 -8.74,70.2 -26.08,264.9 -13.41,301 3.56,10.1 65.94,-38.3 65.94,-38.3 0,0 121.66,-230.6 139.77,-305.5 8.19,-33.9 -52.89,-182.3 -68.44,-247.2 4.54,-22.3 10.32,-49.5 14.68,-66.1 29.18,-110.8 305.4,-381.1 269.89,-599.9 -35.51,-218.8 -377.09,124.5 -368.84,222.4"
         style="fill:#ffffff;fill-opacity:1;fill-rule:nonzero;stroke:none"
         id="path290" /><path
         d="m 7501.06,17385.5 c 10.27,-31.9 51.74,-107.4 78.03,-155.2 21.96,-40 42.71,-77.7 54.27,-103.2 l 1.13,-2.5 0.21,-2.7 c 2.13,-27.3 61.66,-394.3 67.05,-413.3 l 1.32,-3.4 -0.59,-2.8 c -5.17,-61.3 171.06,-263.5 277.37,-276.6 21.66,-2.7 51.47,0.4 60.81,58 22.68,139.7 -92.43,308.9 -176.49,432.5 -46.19,67.9 -82.68,121.5 -93.09,161 -3.65,13.8 -8.65,36.4 -14.87,66.9 l -0.68,3.4 0.79,3.3 c 5.79,24.2 17.42,58.7 29.72,95.3 17.09,50.7 42.91,127.4 38.73,144.7 -16.37,67.7 -122.66,271.8 -136.85,298.9 -14.19,10.9 -30.67,22.4 -41.77,29 -4.86,-52.1 7.01,-202 16.67,-279.6 4.92,-39.6 -14.46,-152.5 -16.68,-165.3 l -5.66,-32.4 -21.32,25.1 c -41.53,48.6 -93.12,101.5 -118.1,118.9 z m 487.78,-991.2 c -4.55,0 -8.85,0.3 -12.77,0.8 -117.18,14.4 -307.38,222 -304.55,307.3 -10.27,44 -62.55,374.2 -67.33,414.2 -11.28,24.4 -31.17,60.6 -52.19,98.8 -60.54,110.2 -88.51,164.7 -83.51,188.4 1.91,9.1 7.77,15.5 16.09,17.6 21.35,5.5 67.19,-31.5 136.37,-109.7 6.37,41.7 14,101.1 11.2,123.7 -5.2,41.8 -28.31,263.4 -12.65,308 1.88,5.3 6.1,9.3 11.57,10.9 6.09,1.8 17.47,5.2 78.44,-42.1 l 2.63,-2.1 1.56,-2.9 c 5,-9.5 122.76,-233.1 141.11,-309.1 5.85,-24.2 -11.01,-77.2 -39.47,-161.8 -11.51,-34.2 -22.42,-66.6 -28.15,-89.3 5.71,-27.9 10.46,-49.2 13.78,-61.8 9.06,-34.4 46,-88.7 88.76,-151.6 86.98,-127.8 206.1,-302.9 181.44,-454.8 -11.48,-70.7 -52.25,-84.5 -82.33,-84.5"
         style="fill:#0e2549;fill-opacity:1;fill-rule:nonzero;stroke:none"
         id="path292" /><path
         d="m 7724.59,17341.6 c -1.14,0 -2.3,0.1 -3.45,0.4 -7.88,1.9 -12.72,9.8 -10.82,17.7 l 19.46,80.6 -78.02,272.3 c -2.23,7.8 2.28,15.9 10.07,18.2 7.8,2.2 15.9,-2.3 18.14,-10.1 l 80.14,-279.8 -21.27,-88.1 c -1.62,-6.7 -7.63,-11.2 -14.25,-11.2"
         style="fill:#0e2549;fill-opacity:1;fill-rule:nonzero;stroke:none"
         id="path294" /><path
         d="m 6649.54,16986.7 c 729.15,-505.4 621.5,31.3 767.89,-83.3 107.48,-84.2 176.8,-199.2 176.8,-199.2 l -63.78,252.4 708.31,178.7 c 0,0 222.81,-1588.4 -267.37,-1608.2 -211.26,-8.6 -490.59,603.6 -490.59,603.6 l -75.7,-899.9 -1302.42,3.5 92.65,366 -541.99,-1005.2 -750.19,520.7 c 0,0 1399.94,2111.1 1746.39,1870.9"
         style="fill:#e2474b;fill-opacity:1;fill-rule:nonzero;stroke:none"
         id="path296" /><path
         d="m 10120.3,14920.5 c -0.6,0 -1.3,0 -1.9,0.1 l -2522.76,260.6 c -10.22,1 -17.65,10.2 -16.6,20.4 1.06,10.2 10.13,17.6 20.43,16.6 l 2522.73,-260.6 c 10.2,-1 17.7,-10.2 16.6,-20.4 -1,-9.6 -9.1,-16.7 -18.5,-16.7"
         style="fill:#a1c5e2;fill-opacity:1;fill-rule:nonzero;stroke:none"
         id="path298" /><path
         d="m 6222.24,15667.9 c -2.85,0 -5.73,0.7 -8.43,2 -9.16,4.7 -12.8,15.9 -8.14,25 l 194.56,382.2 c 4.66,9.2 15.87,12.8 25.02,8.2 9.16,-4.7 12.81,-15.9 8.14,-25.1 l -194.56,-382.1 c -3.28,-6.5 -9.82,-10.2 -16.59,-10.2"
         style="fill:#0e2549;fill-opacity:1;fill-rule:nonzero;stroke:none"
         id="path300" /><path
         d="m 7210.26,15277.5 c -1.57,0 -3.18,0.2 -4.78,0.6 -9.93,2.6 -15.85,12.8 -13.21,22.8 168.1,633.7 14.34,1413.7 12.76,1421.5 -2.03,10 4.5,19.9 14.57,21.9 10.06,2 19.89,-4.5 21.92,-14.6 1.59,-7.9 157.08,-796.1 -13.28,-1438.4 -2.21,-8.3 -9.74,-13.8 -17.98,-13.8"
         style="fill:#0e2549;fill-opacity:1;fill-rule:nonzero;stroke:none"
         id="path302" /><path
         d="m 7123.94,16211.9 c -19.09,0 -34.63,-15.5 -34.63,-34.6 0,-19.1 15.54,-34.7 34.63,-34.7 19.09,0 34.62,15.6 34.62,34.7 0,19.1 -15.53,34.6 -34.62,34.6 z m 0,-106.5 c -39.61,0 -71.85,32.3 -71.85,71.9 0,39.6 32.24,71.8 71.85,71.8 39.61,0 71.84,-32.2 71.84,-71.8 0,-39.6 -32.23,-71.9 -71.84,-71.9"
         style="fill:#0e2549;fill-opacity:1;fill-rule:nonzero;stroke:none"
         id="path304" /><path
         d="m 7123.94,16538.2 c -19.09,0 -34.63,-15.6 -34.63,-34.7 0,-19.1 15.54,-34.6 34.63,-34.6 19.09,0 34.62,15.5 34.62,34.6 0,19.1 -15.53,34.7 -34.62,34.7 z m 0,-106.5 c -39.61,0 -71.85,32.2 -71.85,71.8 0,39.6 32.24,71.9 71.85,71.9 39.61,0 71.84,-32.3 71.84,-71.9 0,-39.6 -32.23,-71.8 -71.84,-71.8"
         style="fill:#0e2549;fill-opacity:1;fill-rule:nonzero;stroke:none"
         id="path306" /><path
         d="m 7112.06,15850.6 c -19.09,0 -34.62,-15.5 -34.62,-34.6 0,-19.1 15.53,-34.6 34.62,-34.6 19.09,0 34.62,15.5 34.62,34.6 0,19.1 -15.53,34.6 -34.62,34.6 z m 0,-106.4 c -39.61,0 -71.84,32.2 -71.84,71.8 0,39.6 32.23,71.9 71.84,71.9 39.61,0 71.84,-32.3 71.84,-71.9 0,-39.6 -32.23,-71.8 -71.84,-71.8"
         style="fill:#0e2549;fill-opacity:1;fill-rule:nonzero;stroke:none"
         id="path308" /><path
         d="m 7085.54,15484.1 c -19.09,0 -34.62,-15.5 -34.62,-34.6 0,-19.1 15.53,-34.7 34.62,-34.7 19.09,0 34.63,15.6 34.63,34.7 0,19.1 -15.54,34.6 -34.63,34.6 z m 0,-106.5 c -39.61,0 -71.84,32.3 -71.84,71.9 0,39.6 32.23,71.8 71.84,71.8 39.62,0 71.84,-32.2 71.84,-71.8 0,-39.6 -32.22,-71.9 -71.84,-71.9"
         style="fill:#0e2549;fill-opacity:1;fill-rule:nonzero;stroke:none"
         id="path310" /><path
         d="m 7791.59,15816.7 c -6.18,0 -12.23,3.1 -15.77,8.7 -50.25,79.9 -166.78,789.9 -179.9,870.6 -1.65,10.2 5.24,19.7 15.38,21.4 10.08,1.6 19.71,-5.3 21.36,-15.4 51.05,-314 139.68,-801.2 174.66,-856.8 5.48,-8.7 2.86,-20.2 -5.84,-25.7 -3.08,-1.9 -6.5,-2.8 -9.89,-2.8"
         style="fill:#0e2549;fill-opacity:1;fill-rule:nonzero;stroke:none"
         id="path312" /><path
         d="M 8688.96,3070.3 C 8546.41,2230 8413.46,2034.8 8362.91,1989.9 c -124.86,-111 -579.54,-197.1 -1081.13,-204.7 -525.92,-8.1 -965.35,72.7 -1093.43,200.7 -27.2,27.2 -124.05,184 -228.22,1059.4 -15.19,127.7 -28.49,253.9 -39.84,370.5 39.7,-15.2 80.14,-32 121.33,-50.6 13.05,-5.8 26.71,-8.6 40.16,-8.6 37.32,0 72.96,21.4 89.29,57.7 22.21,49.2 0.27,107.2 -49.01,129.4 -76.13,34.3 -150.04,63 -221.58,87 -9.1,104.4 -16.07,192.7 -20.79,255.7 h 2921.98 c -17.7,-160.8 -55.95,-481.5 -112.71,-816.1 z m -3978.64,-24.2 c -104.19,-876.1 -201.09,-1033 -228.31,-1060.2 -128.07,-128.1 -567.6,-208.8 -1093.43,-200.7 -501.59,7.6 -956.27,93.7 -1081.12,204.7 -50.52,44.9 -183.39,239.9 -325.87,1079.3 -56.83,334.9 -95.16,656.2 -112.89,817.2 h 2921.98 c -4.41,-58.6 -10.74,-139.3 -18.95,-234.4 -154.41,-53.9 -240.77,-114.3 -245.61,-117.8 -44.05,-31.3 -54.37,-92.4 -23.04,-136.5 31.32,-44 92.42,-54.3 136.49,-23 1.41,1 40.21,27.8 112.29,59.5 -11.71,-121.4 -25.58,-253.9 -41.54,-388.1 z m 959.73,1036.1 6.82,-104.3 c 0.15,-2.3 7.71,-116.8 22.29,-290.6 -302.33,69.2 -551.06,53.3 -726.39,18.9 13.55,163.2 20.57,269.5 20.72,271.7 l 6.82,104.3 H 1652.25 l 10.31,-107.3 c 0.44,-4.5 44.36,-457 125.85,-937.4 169.44,-998.8 334.69,-1145.7 388.99,-1193.9 199.17,-177.1 775.33,-247.6 1208.21,-254.2 18.21,-0.2 39.85,-0.4 64.42,-0.4 279.99,0 937.78,25.9 1170.4,258.5 44.85,44.9 163.98,164 284.28,1175.4 20.02,168.3 36.78,334.1 50.16,479 184.36,44.3 443.77,64.3 762.51,-20.4 13.06,-140 29.18,-298.1 48.27,-458.6 120.31,-1011.4 239.43,-1130.5 284.28,-1175.4 232.64,-232.6 890.44,-258.5 1170.4,-258.5 24.55,0 46.23,0.2 64.43,0.4 432.88,6.6 1009.04,77.1 1208.2,254.2 54.31,48.2 219.55,195.1 388.99,1193.9 81.5,480.4 125.42,932.9 125.85,937.4 l 10.32,107.3 H 5670.05"
         style="fill:#0e2549;fill-opacity:1;fill-rule:nonzero;stroke:none"
         id="path314" /><path
         d="m 2487.07,3031 c -4.63,0 -9.21,2.1 -12.26,6 -5.2,6.8 -3.94,16.5 2.82,21.7 l 649.1,499.9 c 6.76,5.2 16.46,3.9 21.67,-2.8 5.21,-6.8 3.95,-16.5 -2.81,-21.7 l -649.1,-499.9 c -2.81,-2.1 -6.13,-3.2 -9.42,-3.2"
         style="fill:#0e2549;fill-opacity:1;fill-rule:nonzero;stroke:none"
         id="path316" /><path
         d="m 2605.84,2200 c -4.56,0 -9.08,2 -12.13,5.9 -5.29,6.7 -4.16,16.4 2.54,21.7 l 1597.28,1263.3 c 6.69,5.3 16.41,4.2 21.71,-2.5 5.29,-6.7 4.16,-16.4 -2.54,-21.7 L 2615.42,2203.3 c -2.84,-2.2 -6.22,-3.3 -9.58,-3.3"
         style="fill:#0e2549;fill-opacity:1;fill-rule:nonzero;stroke:none"
         id="path318" /><path
         d="m 6235.04,2491.2 c -4.56,0 -9.08,2.1 -12.13,5.9 -5.3,6.7 -4.16,16.4 2.53,21.7 l 1597.28,1263.3 c 6.69,5.3 16.42,4.2 21.71,-2.5 5.3,-6.7 4.16,-16.4 -2.54,-21.7 L 6244.61,2494.6 c -2.83,-2.3 -6.21,-3.4 -9.57,-3.4"
         style="fill:#0e2549;fill-opacity:1;fill-rule:nonzero;stroke:none"
         id="path320" /><path
         d="m 7477.23,3009.6 c -4.57,0 -9.1,2 -12.15,5.9 -5.28,6.7 -4.12,16.4 2.58,21.7 L 8349,3730.9 c 6.7,5.3 16.43,4.2 21.7,-2.6 5.28,-6.7 4.12,-16.4 -2.58,-21.7 l -881.34,-693.7 c -2.83,-2.2 -6.2,-3.3 -9.55,-3.3"
         style="fill:#0e2549;fill-opacity:1;fill-rule:nonzero;stroke:none"
         id="path322" /><path
         d="m 6790.36,2034.2 c -4.5,0 -8.96,2 -12.02,5.7 -5.37,6.7 -4.36,16.4 2.28,21.8 l 1041.96,844.8 c 6.62,5.4 16.36,4.4 21.73,-2.2 5.38,-6.7 4.36,-16.4 -2.27,-21.8 L 6800.08,2037.7 c -2.86,-2.4 -6.31,-3.5 -9.72,-3.5"
         style="fill:#0e2549;fill-opacity:1;fill-rule:nonzero;stroke:none"
         id="path324" /><path
         d="M 8101.76,12531.8 C 8100.55,12475.9 6918.29,11125 5458.4,11125 c -1459.88,0 -2643.35,1373.1 -2643.35,1406.8 0,47.6 1183.47,1406.7 2643.35,1406.7 1459.89,0 2644.07,-1373.9 2643.36,-1406.7"
         style="fill:#ffffff;fill-opacity:1;fill-rule:nonzero;stroke:none"
         id="path326" /><path
         d="m 8087.07,12527.4 h 0.1 z m -5255.29,5 c 29.97,-48.5 321.07,-383.9 785.12,-717.5 427.89,-307.7 1094.71,-674.4 1841.5,-674.4 751.24,0 1417.64,363.5 1844.41,668.5 464.03,331.7 757.35,671.6 782.37,721.9 -29.19,47.7 -320.61,383.6 -785.44,717.8 -427.94,307.6 -1094.77,674.4 -1841.34,674.4 -749.37,0 -1415.84,-364.5 -1842.98,-670.3 -457.43,-327.5 -755.87,-668.5 -783.64,-720.4 z M 5458.4,11109.6 c -763.06,0 -1442.56,377.2 -1878.21,693.7 -254.32,184.7 -449.43,364.9 -568.33,483.5 -88.14,88 -212.27,222.1 -212.27,245 0,27.6 130.19,168.5 212.24,250.8 117.6,117.9 311.67,297.4 568.38,482.9 434.55,314.1 1113.13,688.5 1878.19,688.5 1201.4,0 2202.34,-927.4 2480.5,-1211.6 1.78,-1.8 178.91,-183.2 178.31,-211 l -15.45,0.4 15.45,-0.4 c -0.92,-42.6 -326.33,-408.7 -781.09,-736.5 -433.73,-312.6 -1111.58,-685.3 -1877.72,-685.3"
         style="fill:#0e2549;fill-opacity:1;fill-rule:nonzero;stroke:none"
         id="path328" /><path
         d="m 6835.8,12531.9 c 0,-768.4 -622.92,-1391.4 -1391.33,-1391.4 -768.41,0 -1391.33,623 -1391.33,1391.4 0,768.4 622.92,1391.3 1391.33,1391.3 768.41,0 1391.33,-622.9 1391.33,-1391.3"
         style="fill:#a1c5e2;fill-opacity:1;fill-rule:nonzero;stroke:none"
         id="path330" /><path
         d="m 6095.7,12531.8 c 0,-352 -285.33,-637.3 -637.3,-637.3 -351.97,0 -637.3,285.3 -637.3,637.3 0,352 285.33,637.3 637.3,637.3 351.97,0 637.3,-285.3 637.3,-637.3"
         style="fill:#0e2549;fill-opacity:1;fill-rule:nonzero;stroke:none"
         id="path332" /><path
         d="m 5999.14,13069.7 c 0,-92.6 -75.03,-167.6 -167.59,-167.6 -92.57,0 -167.6,75 -167.6,167.6 0,92.5 75.03,167.6 167.6,167.6 92.56,0 167.59,-75.1 167.59,-167.6"
         style="fill:#ffffff;fill-opacity:1;fill-rule:nonzero;stroke:none"
         id="path334" /><path
         d="M 17505.6,1583.4 H 1590.68 c -8,0 -14.49,6.5 -14.49,14.5 0,8 6.49,14.5 14.49,14.5 H 17505.6 c 8,0 14.5,-6.5 14.5,-14.5 0,-8 -6.5,-14.5 -14.5,-14.5"
         style="fill:#0e2549;fill-opacity:1;fill-rule:nonzero;stroke:none"
         id="path336" /></g></g></svg>
